<?xml version="1.0" encoding="UTF-8"?>
<!DOCTYPE svg PUBLIC "-//W3C//DTD SVG 1.1//EN" "http://www.w3.org/Graphics/SVG/1.1/DTD/svg11.dtd">
<!-- Creator: CorelDRAW 2019 (64-Bit) -->
<svg xmlns="http://www.w3.org/2000/svg" xml:space="preserve" width="39.0906mm" height="10.0838mm" version="1.1" style="shape-rendering:geometricPrecision; text-rendering:geometricPrecision; image-rendering:optimizeQuality; fill-rule:evenodd; clip-rule:evenodd"
viewBox="0 0 3909.06 1008.38"
 xmlns:xlink="http://www.w3.org/1999/xlink"
 xmlns:xodm="http://www.corel.com/coreldraw/odm/2003">
 <defs>
  <style type="text/css">
   <![CDATA[
    .fil0 {fill:red}
    .fil2 {fill:#FFF212;fill-rule:nonzero}
    .fil1 {fill:#FFD900;fill-rule:nonzero}
   ]]>
  </style>
 </defs>
 <g id="Layer_x0020_1">
  <metadata id="CorelCorpID_0Corel-Layer"/>
  <rect class="fil0" x="-1.27" y="3.81" width="3909.06" height="1008.38"/>
  <path class="fil1" d="M107.59 297.93l-1.82 -13.7c0,-39.95 18.45,-75.61 55.36,-107 65.94,-55.35 172.4,-89.6 319.4,-102.72 22.39,-1.71 48.55,-2.56 78.5,-2.56 29.94,0 67.9,4.13 113.88,12.41 45.97,8.27 83.78,23.54 113.42,45.79 47.18,36.53 70.78,84.32 70.78,143.39 0,59.06 -18.6,113.55 -55.81,163.49 -37.2,49.93 -84.54,88.6 -142.01,115.99 -57.46,27.39 -118.86,41.08 -184.2,41.08 -65.34,0 -118.26,-14.54 -158.79,-43.65 -0.61,0.57 -3.48,5.42 -8.63,14.55 -5.14,9.13 -10.43,17.97 -15.88,26.54 -27.82,41.66 -52.63,47.36 -74.4,17.12 -12.71,-17.69 -19.05,-38.81 -19.05,-63.35 0,-24.54 2.72,-54.21 8.16,-89.02 0.6,-3.43 -1.82,-11.41 -7.26,-23.97 -1.81,-5.7 0.3,-11.41 6.35,-17.11 4.84,-3.43 11.65,-6.28 20.42,-8.57 8.77,-2.28 14.82,-2.28 18.15,0 3.32,2.29 2.57,8.41 -2.27,18.4 -4.85,9.99 -7.26,19.27 -7.26,27.82 0,8.56 9.38,21.26 28.13,38.09 18.75,16.84 30.24,25.83 34.48,26.97 14.52,-33.67 45.37,-96.73 92.55,-189.18 5.44,-10.27 8.17,-17.97 8.17,-23.11 0,-5.13 -0.6,-9.12 -1.81,-11.98 3.02,-16.55 22.23,-42.8 57.62,-78.75 35.39,-35.95 63.97,-53.93 85.75,-53.93 8.46,0 19.05,2.71 31.76,8.13 12.7,5.42 19.96,12.98 21.77,22.69 0,3.42 -0.3,5.27 -0.91,5.56 -0.6,0.28 -2.11,-0.14 -4.53,-1.29 -2.42,-1.14 -4.23,-1.71 -5.44,-1.71 -19.37,0 -42.2,13.27 -68.51,39.8 -26.32,26.54 -52.48,61.21 -78.5,104.01 -45.97,74.19 -82.88,139.81 -110.7,196.88 37.51,25.68 78.34,38.52 122.5,38.52 57.47,0 112.52,-13.98 165.15,-41.94 52.63,-27.96 94.97,-60.21 127.04,-96.73 52.02,-59.92 78.03,-118.98 78.03,-177.19 0,-42.8 -17.99,-81.04 -53.99,-114.71 -35.99,-33.66 -93,-51.65 -171.05,-53.92 -3.62,0 -7.25,0 -10.88,0 -61.71,0 -126.73,9.55 -195.09,28.67 -68.36,19.12 -126.74,46.37 -175.14,81.75 -48.39,35.38 -72.59,72.19 -72.59,110.42 0,9.71 3.18,18.27 9.53,25.69 6.35,7.41 13.01,12.55 19.96,15.4 6.96,2.85 15.74,6 26.31,9.42 10.59,3.42 17.56,5.85 20.88,7.27 3.33,1.43 5.29,3 5.89,4.71 1.21,4.56 -3.02,6.85 -12.7,6.85 -22.38,-1.71 -44.92,-9.56 -67.59,-23.54 -22.69,-13.99 -34.04,-30.39 -34.04,-49.22 0,-2.86 0.3,-5.71 0.91,-8.56zm122.5 187.46c0,77.04 5.75,115.56 17.24,115.56 8.47,0 20.56,-19.97 36.3,-59.92 1.21,-1.71 1.82,-2.85 1.82,-3.42 -4.25,-3.42 -13.16,-11.84 -26.77,-25.26 -13.62,-13.4 -23.15,-22.39 -28.59,-26.96zm715.94 -160.07c15.12,0 24.2,4.57 27.22,13.69 1.21,5.14 0.46,10.13 -2.26,14.99 -2.72,4.85 -4.69,8.7 -5.9,11.55 -1.21,2.86 -2.12,5.14 -2.73,6.85 -3.02,5.71 -6.04,11.13 -9.07,16.27 -34.48,65.05 -52.63,106.43 -54.44,124.12 -0.61,5.13 -0.91,11.69 -0.91,19.68 0,8 2.42,14.56 7.26,19.69 8.47,9.13 20.57,9.71 36.3,1.71 15.72,-7.99 37.66,-23.97 65.79,-47.94 28.13,-23.96 50.96,-47.36 68.5,-70.18 2.43,-2.85 5.15,-3.57 8.17,-2.15 3.02,1.43 4.53,2.85 4.53,4.28 0,1.44 -0.6,3 -1.81,4.71 -9.07,15.41 -25.41,35.1 -49,59.07 -38.71,39.37 -71.08,63.62 -97.09,72.75 -15.12,5.15 -27.83,7.71 -38.11,7.71 -24.19,0 -40.23,-10.84 -48.09,-32.53 -1.21,-3.99 -1.82,-8.84 -1.82,-14.55 0,-19.97 9.68,-50.21 29.04,-90.73 -3.02,6.28 -14.82,20.54 -35.39,42.79 -5.44,5.71 -9.68,5.71 -12.71,0 -0.6,-1.13 -0.91,-2.71 -0.91,-4.7 0,-2 1.21,-4.43 3.64,-7.28 29.64,-34.81 52.93,-64.2 69.86,-88.17 -1.21,-2.85 -0.6,-6.56 1.83,-11.13 12.09,-31.95 22.68,-48.78 31.75,-50.5 1.82,0 3.93,0 6.35,0zm71.69 -113.85l-7.26 27.39c0,5.14 -3.93,13.42 -11.8,24.83 -7.87,11.42 -13.91,17.12 -18.14,17.12 -26.02,0 -39.02,-5.99 -39.02,-17.98 0,-2.28 13,-12.84 39.02,-31.67l15.42 -11.13c9.68,-7.98 15.73,-11.98 18.15,-11.98 2.42,0 3.63,1.14 3.63,3.42zm91.65 360.37c-9.68,0 -20.12,-2.7 -31.3,-8.12 -11.2,-5.42 -20.73,-13.13 -28.59,-23.11 -7.87,-9.99 -11.8,-20.7 -11.8,-32.11 0,-11.41 2.72,-22.25 8.17,-32.52 12.1,-23.97 31.61,-47.23 58.52,-69.77 26.92,-22.53 54.9,-41.8 83.94,-57.77 29.03,-15.99 52.03,-25.97 68.96,-29.97 16.94,-3.99 33.43,-5.99 49.46,-5.99 16.03,0 29.79,3.85 41.29,11.55 11.49,7.72 17.24,15.84 17.24,24.41 0,2.85 -0.3,4.56 -0.91,5.13 -0.6,0.57 -2.11,0.28 -4.54,-0.86 -7.26,-10.84 -22.23,-16.26 -44.92,-16.26 -22.68,0 -48.39,6.99 -77.12,20.97 -28.74,13.98 -55.81,31.53 -81.22,52.64 -21.17,18.83 -39.78,40.09 -55.81,63.78 -16.02,23.68 -24.03,40.94 -24.03,51.79 0,21.11 6.34,31.67 19.05,31.67 12.7,0 32.06,-9.71 58.07,-29.11 42.95,-34.24 72.29,-59.35 88.02,-75.33 55.65,-56.49 85.6,-84.74 89.83,-84.74 7.26,0 16.04,2 26.31,5.99 10.29,4 13.62,8.85 9.99,14.56 -30.85,41.08 -49,82.46 -54.45,124.12 -0.6,5.13 -0.9,11.69 -0.9,19.68 0,8 2.41,14.56 7.26,19.69 9.07,9.13 21.47,9.71 37.2,1.71 15.72,-7.99 37.66,-23.97 65.79,-47.94 28.13,-23.96 50.66,-47.36 67.6,-70.18 2.42,-2.85 5.14,-3.57 8.16,-2.15 3.03,1.43 4.55,2.71 4.55,3.86 0,8.56 -14.37,27.25 -43.1,56.07 -28.74,28.81 -50.67,48.36 -65.79,58.63 -28.44,19.98 -54.75,29.96 -78.95,29.96 -22.99,0 -38.41,-10.84 -46.28,-32.53 -1.81,-6.85 -2.72,-14.55 -2.72,-23.11 0,-25.68 5.74,-52.78 17.24,-81.32 -2.42,1.14 -13.61,12.55 -33.57,34.24 -19.97,21.68 -43.1,42.52 -69.42,62.49 -26.32,19.98 -50.06,29.95 -71.23,29.95zm622.48 -252.51c13.91,0 20.87,6.99 20.87,20.97 0,13.98 -6.96,33.25 -20.87,57.78 -13.91,24.54 -24.2,44.51 -30.85,59.92 -11.5,26.25 -17.25,47.23 -17.25,62.92 0,15.69 2.42,26.11 7.26,31.24 9.07,9.13 21.48,9.56 37.2,1.29 15.74,-8.28 37.66,-24.26 65.79,-47.94 28.13,-23.69 50.67,-46.94 67.61,-69.76 2.42,-2.85 5.29,-3.57 8.61,-2.15 3.34,1.43 5,2.85 5,4.28 0,1.44 -0.61,3 -1.81,4.71 -9.08,15.41 -25.41,35.1 -49.01,59.07 -23.59,23.97 -46.28,43.22 -68.06,57.78 -21.77,14.55 -43.25,21.83 -64.42,21.83 -20.57,-0.58 -35.09,-5 -43.55,-13.28 -8.48,-8.27 -12.71,-18.68 -12.71,-31.23 0,-12.56 1.21,-24.69 3.63,-36.39 2.42,-11.69 6.96,-25.25 13.61,-40.65 10.89,-24.55 20.42,-43.67 28.58,-57.36 8.17,-13.69 12.26,-22.69 12.26,-26.96 0,-4.28 -2.42,-6.42 -7.26,-6.42 -9.68,0 -28.13,11.13 -55.35,33.38 -18.76,16.55 -46.44,47.79 -83.03,93.74 -36.6,45.93 -57.32,70.33 -62.17,73.18 -21.77,10.28 -35.38,15.41 -40.83,15.41 -5.44,0 -8.16,-0.86 -8.16,-2.57 0,-1.71 0.6,-4.14 1.81,-7.27 1.21,-3.15 7.12,-18.69 17.69,-46.66 10.59,-27.96 22.09,-58.63 34.49,-92.02 12.4,-33.38 19.96,-53.5 22.68,-60.35 2.73,-6.84 4.55,-12.7 5.45,-17.54 0.91,-4.85 1.97,-8.99 3.18,-12.41 1.2,-3.43 3.47,-7.28 6.8,-11.56 3.33,-4.28 7.71,-6.57 13.15,-6.85 5.46,-0.28 12.41,0.28 20.88,1.72 8.46,1.42 12.71,4.98 12.71,10.69 0,4 -3.34,12.7 -9.99,26.11 -6.65,13.41 -25.71,59.5 -57.17,138.25 21.79,-25.12 49.3,-54.08 82.58,-86.89 33.27,-32.81 61.4,-57.77 84.39,-74.9 22.98,-15.4 41.74,-23.11 56.26,-23.11zm477.29 -179.76c23.6,-27.97 65.34,-47.08 125.22,-57.35 26.02,-4 52.64,-6 79.86,-6 27.22,0 55.35,2.29 84.39,6.86 15.73,-16.55 31.76,-24.83 48.09,-24.83 4.23,0 7.11,1 8.62,3 1.51,1.99 1.36,4.13 -0.45,6.42 -1.82,2.27 -5.91,4.42 -12.25,6.42 -6.36,1.99 -13.77,6.42 -22.24,13.26 20.57,5.71 34.79,10.41 42.65,14.12 7.87,3.71 13.76,8.42 17.7,14.14 3.93,5.7 5.9,9.69 5.9,11.98 0,5.13 -8.33,5.13 -24.96,0 -16.63,-5.14 -36.14,-9.13 -58.53,-11.98 -10.89,24.53 -22.37,58.2 -34.47,101 -12.1,42.8 -19.37,68.48 -21.79,77.04 32.67,-7.41 54.6,-11.12 65.79,-11.12 11.2,0 18,0.7 20.42,2.13 2.41,1.42 3.77,3.28 4.08,5.57 0.31,2.28 -0.15,4.13 -1.36,5.56 -1.21,1.42 -3.18,1.57 -5.9,0.42 -2.72,-1.13 -7.72,-1.71 -14.97,-1.71 -7.26,0 -20.88,2.43 -40.83,7.28 -19.96,4.86 -31.76,12.12 -35.39,21.83 -55.65,144.37 -126.43,244.82 -212.33,301.31 -38.12,25.68 -72.91,38.52 -104.36,38.52 -11.5,0 -22.38,-1.71 -32.66,-5.13 -30.85,-9.71 -46.28,-31.25 -46.28,-64.63 0,-33.39 18.45,-70.06 55.35,-110 74.41,-80.46 174.83,-139.53 301.26,-177.19 1.81,-5.13 7.56,-21.97 17.24,-50.5 21.18,-65.06 40.83,-112.42 58.98,-142.1 -7.25,0 -18.15,0 -32.66,0 -14.52,0 -35.1,1.42 -61.7,4.28 -68.36,7.42 -117.07,23.68 -146.1,48.79 -15.13,13.7 -22.68,29.39 -22.68,47.08 0,8.56 2.57,16.26 7.7,23.12 5.15,6.84 10.14,11.69 14.98,14.54 7.86,5.14 18.45,10.85 31.75,17.13 7.27,5.13 8.78,8.27 4.55,9.41 -1.82,0 -3.93,-0.28 -6.36,-0.85 -14.52,-2.86 -29.94,-11.13 -46.28,-24.83 -16.33,-13.7 -24.8,-29.38 -25.41,-47.08 -1.81,-6.27 -2.72,-11.41 -2.72,-15.4 0,-18.83 6.06,-35.68 18.15,-50.51zm-118.87 447.69c0,6.28 0.61,12.56 1.82,18.83 6.05,21.69 21.17,32.52 45.36,32.52 35.7,0 73.2,-22.54 112.52,-67.62 58.08,-66.76 106.18,-149.51 144.28,-248.24 -105.86,32.53 -189.64,85.32 -251.35,158.37 -35.09,40.51 -52.63,75.89 -52.63,106.14zm524.49 -15.42c-9.68,0 -20.11,-2.7 -31.3,-8.12 -11.2,-5.42 -20.73,-13.13 -28.59,-23.11 -7.87,-9.99 -11.8,-20.7 -11.8,-32.11 0,-11.41 2.72,-22.25 8.17,-32.52 12.1,-23.97 31.61,-47.23 58.53,-69.77 26.92,-22.53 54.89,-41.8 83.94,-57.77 29.03,-15.99 52.02,-25.97 68.95,-29.97 16.95,-3.99 33.43,-5.99 49.46,-5.99 16.03,0 29.79,3.85 41.29,11.55 11.5,7.72 17.24,15.84 17.24,24.41 0,2.85 -0.3,4.56 -0.91,5.13 -0.6,0.57 -2.11,0.28 -4.53,-0.86 -7.27,-10.84 -22.24,-16.26 -44.93,-16.26 -22.68,0 -48.39,6.99 -77.12,20.97 -28.74,13.98 -55.81,31.53 -81.22,52.64 -21.17,18.83 -39.78,40.09 -55.81,63.78 -16.02,23.68 -24.03,40.94 -24.03,51.79 0,21.11 6.34,31.67 19.05,31.67 12.7,0 32.06,-9.71 58.07,-29.11 42.95,-34.24 72.29,-59.35 88.02,-75.33 55.65,-56.49 85.6,-84.74 89.84,-84.74 7.25,0 16.03,2 26.31,5.99 10.28,4 13.61,8.85 9.98,14.56 -30.85,41.08 -49,82.46 -54.45,124.12 -0.6,5.13 -0.9,11.69 -0.9,19.68 0,8 2.41,14.56 7.26,19.69 9.07,9.13 21.47,9.71 37.2,1.71 15.73,-7.99 37.66,-23.97 65.79,-47.94 28.13,-23.96 50.67,-47.36 67.6,-70.18 2.42,-2.85 5.14,-3.57 8.16,-2.15 3.04,1.43 4.55,2.71 4.55,3.86 0,8.56 -14.37,27.25 -43.1,56.07 -28.74,28.81 -50.67,48.36 -65.79,58.63 -28.44,19.98 -54.75,29.96 -78.95,29.96 -22.99,0 -38.41,-10.84 -46.28,-32.53 -1.81,-6.85 -2.72,-14.55 -2.72,-23.11 0,-25.68 5.74,-52.78 17.24,-81.32 -2.42,1.14 -13.61,12.55 -33.57,34.24 -19.97,21.68 -43.1,42.52 -69.42,62.49 -26.32,19.98 -50.06,29.95 -71.23,29.95zm345.71 316.73c-4.83,0 -10.88,-0.86 -18.14,-2.57 -30.85,-7.42 -46.28,-22.68 -46.28,-45.79 0,-23.12 15.88,-52.07 47.64,-86.89 31.76,-34.81 98.76,-84.18 200.99,-148.09 56.86,-109.57 92.86,-186.32 107.98,-230.26 -7.26,7.99 -21.48,25.25 -42.64,51.79 -21.18,26.54 -39.93,49.08 -56.26,67.62 -16.34,18.55 -36,36.1 -58.98,52.65 -22.99,16.55 -44.16,24.81 -63.53,24.81 -19.35,0 -34.32,-4.13 -44.91,-12.4 -10.59,-8.28 -16.49,-16.98 -17.69,-26.11 -1.21,-9.13 -1.82,-16.83 -1.82,-23.11 0,-21.12 6.05,-42.24 18.15,-63.34 18.14,-34.82 42.65,-64.78 73.5,-89.88 11.49,-10.28 21.63,-15.42 30.39,-15.42 8.78,0 16.8,2.57 24.05,7.71 7.87,7.99 10.29,14.84 7.27,20.55 -23,12.55 -49.31,36.8 -78.95,72.75 -15.73,19.41 -26.62,43.94 -32.67,73.61 -0.6,4.01 -0.9,9 -0.9,14.99 0,5.99 2.57,10.84 7.7,14.55 5.15,3.71 10.44,5.56 15.88,5.56 18.76,0 38.42,-9.41 58.98,-28.24 20.58,-18.83 40.23,-38.67 58.99,-59.49 18.75,-20.84 40.07,-45.8 63.97,-74.9 23.9,-29.1 39.63,-48.23 47.18,-57.36 7.57,-9.13 15.29,-13.7 23.14,-13.7 9.69,0 19.67,2.57 29.95,7.71 10.29,5.14 14.67,9.13 13.16,11.99 -1.51,2.85 -16.94,35.24 -46.28,97.15 -29.34,61.92 -50.67,106.29 -63.98,133.11 14.52,-7.42 39.18,-24.97 73.97,-52.65 34.78,-27.67 64.27,-55.78 88.47,-84.31 6.04,-6.85 9.98,-7.42 11.79,-1.72 0.61,1.15 0.91,3.01 0.91,5.57 0,2.57 -1.81,6.14 -5.45,10.7 -18.75,23.4 -48.69,52.79 -89.83,88.17 -41.14,35.38 -73.8,59.35 -98,71.9 -51.43,99.87 -85.9,162.64 -103.44,188.32 -45.37,63.35 -90.15,95.02 -134.31,95.02zm166.97 -250.81c-72.59,51.36 -124.47,91.88 -155.62,121.55 -31.15,29.68 -46.73,55.21 -46.73,76.61 0,21.4 7.86,32.11 23.6,32.11 12.09,0 26,-5.86 41.73,-17.55 15.74,-11.7 30.86,-27.26 45.38,-46.66 14.52,-19.39 25.55,-36.09 33.11,-50.07 7.57,-13.99 18,-34.53 31.31,-61.63 13.31,-27.11 22.38,-45.23 27.22,-54.36zm279.49 -65.92c-9.68,0 -20.12,-2.7 -31.3,-8.12 -11.2,-5.42 -20.73,-13.13 -28.59,-23.11 -7.87,-9.99 -11.8,-20.7 -11.8,-32.11 0,-11.41 2.72,-22.25 8.17,-32.52 12.1,-23.97 31.61,-47.23 58.52,-69.77 26.92,-22.53 54.9,-41.8 83.94,-57.77 29.03,-15.99 52.03,-25.97 68.96,-29.97 16.94,-3.99 33.43,-5.99 49.46,-5.99 16.03,0 29.79,3.85 41.29,11.55 11.49,7.72 17.24,15.84 17.24,24.41 0,2.85 -0.3,4.56 -0.91,5.13 -0.6,0.57 -2.11,0.28 -4.54,-0.86 -7.26,-10.84 -22.23,-16.26 -44.92,-16.26 -22.68,0 -48.39,6.99 -77.12,20.97 -28.74,13.98 -55.81,31.53 -81.22,52.64 -21.17,18.83 -39.78,40.09 -55.81,63.78 -16.02,23.68 -24.03,40.94 -24.03,51.79 0,21.11 6.34,31.67 19.05,31.67 12.7,0 32.06,-9.71 58.07,-29.11 42.95,-34.24 72.29,-59.35 88.02,-75.33 55.65,-56.49 85.6,-84.74 89.84,-84.74 7.25,0 16.03,2 26.3,5.99 10.29,4 13.62,8.85 9.99,14.56 -30.85,41.08 -49,82.46 -54.45,124.12 -0.6,5.13 -0.9,11.69 -0.9,19.68 0,8 2.41,14.56 7.26,19.69 9.07,9.13 21.47,9.71 37.2,1.71 15.72,-7.99 37.66,-23.97 65.79,-47.94 28.13,-23.96 50.67,-47.36 67.6,-70.18 2.42,-2.85 5.14,-3.57 8.16,-2.15 3.03,1.43 4.55,2.71 4.55,3.86 0,8.56 -14.37,27.25 -43.1,56.07 -28.74,28.81 -50.67,48.36 -65.79,58.63 -28.44,19.98 -54.75,29.96 -78.95,29.96 -22.99,0 -38.41,-10.84 -46.28,-32.53 -1.81,-6.85 -2.72,-14.55 -2.72,-23.11 0,-25.68 5.74,-52.78 17.24,-81.32 -2.42,1.14 -13.61,12.55 -33.57,34.24 -19.97,21.68 -43.1,42.52 -69.42,62.49 -26.32,19.98 -50.06,29.95 -71.23,29.95z"/>
  <path class="fil2" d="M926.23 931.12l11.57 -16.19c11.33,8.25 23.1,14.55 35.31,18.94 12.21,4.34 24.33,6.53 36.29,6.53 14.79,0 26.8,-2.94 36,-8.87 9.25,-5.92 13.84,-13.52 13.84,-22.8 0,-7.37 -3.3,-13.44 -9.93,-18.2 -6.63,-4.76 -15.77,-7.6 -27.44,-8.53 -2.83,-0.29 -6.88,-0.56 -12.17,-0.79 -26.31,-1.78 -44.2,-4.67 -53.8,-8.78 -7.42,-3.4 -13.1,-7.74 -16.96,-13.06 -3.86,-5.37 -5.79,-11.33 -5.79,-18.01 0,-12.12 5.75,-22.11 17.27,-29.98 11.46,-7.84 26.4,-11.76 44.74,-11.76 13.35,0 26.51,2.05 39.51,6.2 13.01,4.15 25.37,10.31 37.04,18.43l-11.57 15.67c-9.89,-7.51 -20.23,-13.15 -31.11,-16.98 -10.87,-3.78 -22.05,-5.69 -33.52,-5.69 -12.07,0 -22,2.24 -29.87,6.67 -7.81,4.44 -11.72,9.98 -11.72,16.65 0,2.62 0.65,5.04 1.88,7.23 1.24,2.2 3.22,4.29 5.79,6.2 6.57,4.63 20.76,7.61 42.63,8.87 10.03,0.56 17.85,1.12 23.33,1.77 16.22,1.73 29.08,6.63 38.57,14.74 9.44,8.12 14.19,18.05 14.19,29.9 0,14.09 -6.47,25.71 -19.48,34.8 -13,9.1 -30.07,13.67 -51.13,13.67 -15.92,0 -30.75,-2.19 -44.4,-6.53 -13.7,-4.38 -26.71,-11.06 -39.07,-20.1zm291.2 22.71l0 -150.85 125.8 0 0 17.35 -105.92 0 0 44.22 64.09 0 0 17.35 -64.09 0 0 54.58 112.45 0 0 17.35 -132.33 0zm259.86 0l0 -150.85 18.39 0 64.67 92.35 64.98 -92.35 18.1 0 0 150.85 -19.58 0 0 -117.78 -63.5 89.23 -63.49 -89.23 0 117.78 -19.57 0zm331.64 -91.24l76.45 0c8.4,0 14.82,-1.82 19.23,-5.41 4.45,-3.59 6.67,-8.77 6.67,-15.53 0,-7.09 -2.12,-12.41 -6.42,-16 -4.31,-3.55 -10.78,-5.32 -19.48,-5.32l-76.45 0 0 42.26zm0 73.89l83.66 0c9.1,0 16.28,-2.52 21.52,-7.55 5.24,-5.09 7.85,-12 7.85,-20.72 0,-8.63 -2.61,-15.53 -7.85,-20.61 -5.24,-5.09 -12.42,-7.66 -21.52,-7.66l-83.66 0 0 56.54zm-19.88 17.35l0 -150.85 94.59 0c15.72,0 27.64,3.17 35.71,9.52 8.05,6.34 12.11,15.67 12.11,28.07 0,6.02 -1.23,11.38 -3.75,16.15 -2.53,4.75 -6.09,8.58 -10.74,11.47 8.51,4.67 14.94,10.35 19.23,17.07 4.36,6.77 6.53,14.46 6.53,23.23 0,13.95 -4.85,24.95 -14.53,33.12 -9.74,8.16 -22.9,12.22 -39.52,12.22l-99.63 0zm320.03 -58.21l70.41 0 -35.35 -66.8 -35.06 66.8zm-51.57 58.21l78.37 -150.85 16.52 0 79.26 150.85 -21.61 0 -21.71 -40.58 -88.36 0 -21.17 40.58 -21.3 0zm297.22 0l0 -151.13 19.88 0 0 75.29 91.73 -75.29 26.05 0 -64.62 53.69 74.42 97.44 -24.04 0 -64.72 -84.43 -38.82 30.74 0 53.69 -19.88 0zm342.68 -13.71c17.95,0 32.83,-5.78 44.66,-17.35 11.76,-11.58 17.65,-26.27 17.65,-44.04 0,-17.82 -5.89,-32.56 -17.6,-44.12 -11.72,-11.57 -26.65,-17.36 -44.71,-17.36 -17.94,0 -32.83,5.84 -44.65,17.45 -11.77,11.62 -17.65,26.31 -17.65,44.03 0,17.77 5.88,32.46 17.65,44.04 11.82,11.57 26.71,17.35 44.65,17.35zm-0.05 17.63c-23.98,0 -43.76,-7.46 -59.33,-22.34 -15.58,-14.88 -23.39,-33.78 -23.39,-56.68 0,-22.95 7.81,-41.88 23.48,-56.76 15.63,-14.88 35.36,-22.35 59.24,-22.35 23.93,0 43.76,7.47 59.54,22.44 15.73,14.92 23.58,33.82 23.58,56.67 0,22.9 -7.85,41.8 -23.53,56.68 -15.68,14.88 -35.55,22.34 -59.59,22.34z"/>
 </g>
</svg>
