<?xml version="1.0" encoding="utf-8"?>
<!-- Generator: Adobe Illustrator 23.0.0, SVG Export Plug-In . SVG Version: 6.00 Build 0)  -->
<svg version="1.1" id="Layer_1" xmlns="http://www.w3.org/2000/svg" xmlns:xlink="http://www.w3.org/1999/xlink" x="0px" y="0px"
	 width="24px" height="24px" viewBox="0 0 24 24" enable-background="new 0 0 24 24" xml:space="preserve">
<g>
	<path fill="#009444" d="M14.003925,12.525141H10.08935c-0.164219,0-0.297346-0.133126-0.297346-0.297346V1.841076
		c0-0.16422,0.133127-0.297346,0.297346-0.297346h3.914576c0.164219,0,0.297346,0.133126,0.297346,0.297346v10.386719
		C14.301271,12.392015,14.168144,12.525141,14.003925,12.525141z"/>
	<path fill="#009444" d="M11.817829,15.671377L7.222195,10.13413C7.061369,9.940352,7.199181,9.646885,7.451004,9.646885h9.191267
		c0.251823,0,0.389635,0.293468,0.228809,0.487246l-4.595634,5.537247C12.156545,15.81464,11.93673,15.81464,11.817829,15.671377z"
		/>
	<path fill="#F7941D" d="M19.996489,14.468274v4.687139c0,0.164219-0.133127,0.297346-0.297346,0.297346H4.300858
		c-0.164219,0-0.297346-0.133127-0.297346-0.297346v-4.687139c0-0.16422-0.133126-0.297346-0.297346-0.297346H1.297346
		C1.133126,14.170928,1,14.304054,1,14.468274v4.984485v1.339338c0,0.919098,0.745075,1.664173,1.664172,1.664173h1.339339
		h15.992977h1.33934C22.254925,22.45627,23,21.711195,23,20.792097v-1.339338v-4.984485
		c0-0.16422-0.133127-0.297346-0.297346-0.297346h-2.408819C20.129616,14.170928,19.996489,14.304054,19.996489,14.468274z"/>
</g>
</svg>
