<?xml version="1.0" encoding="utf-8"?>
<!-- Generator: Adobe Illustrator 23.0.0, SVG Export Plug-In . SVG Version: 6.00 Build 0)  -->
<svg version="1.1" id="Layer_1" xmlns="http://www.w3.org/2000/svg" xmlns:xlink="http://www.w3.org/1999/xlink" x="0px" y="0px"
	 width="64px" height="18.524055px" viewBox="0 0 64 18.524055" enable-background="new 0 0 64 18.524055" xml:space="preserve">
<g>
	<path fill-rule="evenodd" clip-rule="evenodd" fill="#006838" d="M5.797128,1.372182c0,0-0.112201,0.691653-0.19783,1.355255
		C5.504073,3.471496,5.43469,4.197111,5.43469,4.197111S3.758338,4.4097,3.159693,4.794277
		c-0.196352,0.126222-0.065697,6.706895-0.065697,7.120261s0.073816,1.124951,2.373916,1.079185l0.394912,2.962964
		c0,0-5.090329-0.189702-5.57087-3.490748c-0.058317-0.398606-0.322574-2.726018-0.296741-4.68582
		C0.01219,6.506059,0.29491,4.568397,0.62117,3.783735c0.149109-0.358005,0.188234-0.907198,2.176086-1.676352
		C3.140501,1.97452,5.044211,1.447475,5.797128,1.372182z"/>
	<path fill-rule="evenodd" clip-rule="evenodd" fill="#006838" d="M11.407861,0.752128H8.176946
		c-0.260571,0-1.538317,0.058317-1.911829,1.148577C6.223046,2.02398,5.350539,8.485802,6.166206,14.555667
		c0.059795,0.446589,0.371295,2.097846,3.560131,2.136222c0.234737,0.002956,2.572475,0.108507,2.604959-0.941889
		c0.009596-0.3115,0-8.4519,0-8.4519s0.143198-0.321836-1.252651-0.321836H8.836863V3.853118c0,0-0.030267-0.27607,1.05483-0.27607
		h2.20857C12.100262,3.577048,12.820695,0.981693,11.407861,0.752128z M9.219223,9.291134l0.153534-0.017715
		c0.28345-0.033952,0.513016,0.075294,0.513016,0.244335v4.23333c0,0.168302-0.229566,0.33291-0.513016,0.366861L9.219223,14.13566
		c-0.283449,0.033952-0.513016-0.076033-0.513016-0.244334v-4.23333C8.706207,9.488955,8.935774,9.325087,9.219223,9.291134z"/>
	<path fill-rule="evenodd" clip-rule="evenodd" fill="#006838" d="M12.938799,1.303529v14.479694
		c0,0.0561-0.029529,0.363175,0.626695,0.380153c0.704944,0.018454,2.05208-0.251715,2.30748-0.803855
		c0.081195-0.174943-0.362438-5.374517-0.362438-5.374517l1.153741,4.547786c0,0,0.262049,0.910883,1.120525,0.459131
		c0.152796-0.080457,1.883041-0.888005,1.681524-1.538317c-0.08415-0.272376-0.613413-2.592408-0.923435-3.927732
		c-0.025095-0.109985,0.621532-0.097433,0.659908-1.079185c0.00738-0.202254,0.292307-3.042682-0.066435-4.479142
		c-0.124016-0.496778-0.653269-1.863108-3.659041-2.526711C14.945852,1.324199,12.957253,0.848092,12.938799,1.303529z
		 M15.85452,3.925465l0.250976,0.015498c0.259832,0.016237,0.4953,0.187495,0.4953,0.380153v3.560131
		c0,0.193397-0.235468,0.193397-0.4953,0.02067L15.85452,7.734354c-0.206688-0.137296-0.358744-0.358743-0.358744-0.507114V4.172746
		C15.495776,4.023636,15.64784,3.912913,15.85452,3.925465z"/>
	<path fill="#006838" d="M23.181065,9.06351c-0.009604-2.034485,0.611414-3.796027,2.262558-5.088386
		c1.911863-1.496424,4.952633-1.669468,7.022064-0.401052c0.821609,0.503586,1.459682,1.166654,1.665962,2.151335
		c0.135658,0.647568,0.010818,1.231204-0.511513,1.671724c-0.543049,0.457996-1.182663,0.530779-1.839985,0.329596
		c-0.192766-0.059-0.363052-0.246554-0.502665-0.410157c-0.174227-0.204166-0.312605-0.440438-0.45513-0.669886
		c-0.690786-1.112077-2.655626-1.244411-3.365995,0.18107c-0.711809,1.42837-0.712101,2.900673-0.05695,4.339651
		c0.408846,0.89799,1.367252,1.315519,2.317728,1.067873c0.289732-0.07549,0.562197-0.290432,0.793373-0.496655
		c0.225782-0.201411,0.391989-0.470762,0.578684-0.714623c0.584429-0.763375,1.370104-0.980842,2.177156-0.599002
		c0.745266,0.352607,1.095261,1.17026,0.884441,2.060324c-0.177574,0.749729-0.645359,1.300584-1.259815,1.713004
		c-2.068573,1.388412-4.276655,1.556703-6.513132,0.516531c-2.161261-1.00519-3.062113-2.872194-3.195574-5.171971
		C23.173029,9.383606,23.181065,9.223325,23.181065,9.06351z"/>
	<path fill="#006838" d="M41.927505,14.022566c0,0.821218,0.000008,1.642434-0.000011,2.463652
		c-0.000004,0.110683,0.00124,0.221388-0.000462,0.332045c-0.021778,1.41641-1.182358,2.144478-2.482716,1.558294
		c-0.42868-0.193245-0.662266-0.541077-0.748943-0.986185c-0.04665-0.239542-0.064087-0.488211-0.064438-0.732803
		c-0.0042-2.926934-0.002785-5.853878-0.002464-8.780819c0.000011-0.110636-0.001995-0.221729,0.006718-0.331834
		c0.074337-0.939155,0.50996-1.42766,1.321461-1.485444c0.932781-0.06642,1.451378,0.340485,1.654266,1.298072
		c0.010082,0.047576,0.019493,0.095295,0.036983,0.181034c0.637344-1.267581,1.747612-1.556396,2.991329-1.461539
		c1.356297,0.103443,2.383213,0.790857,2.92543,2.049484c0.808376,1.876441,0.731155,3.74212-0.31292,5.517207
		c-0.755577,1.284602-2.144043,1.867093-3.566666,1.5696C42.943951,15.058349,42.408665,14.614598,41.927505,14.022566z
		 M44.748894,10.528409c-0.093777-0.383802-0.147255-0.802358-0.300175-1.180721
		c-0.217083-0.537096-0.700493-0.788691-1.270214-0.755713c-0.567368,0.032841-0.935719,0.327389-1.116646,0.857791
		c-0.240547,0.705192-0.264698,1.419851-0.036465,2.130773c0.192146,0.598508,0.602997,0.924801,1.13652,0.940522
		c0.645401,0.019018,1.119026-0.270522,1.337776-0.883513C44.621315,11.296726,44.66238,10.927158,44.748894,10.528409z"/>
	<path fill="#006838" d="M64.000633,10.675415c0.01239,2.256349-1.01239,3.75897-2.972267,4.348701
		c-1.258499,0.378686-2.525356,0.360937-3.775837-0.047478c-1.288883-0.420959-2.167477-1.277158-2.597015-2.567153
		c-0.272366-0.817981-0.328728-1.668199-0.20924-2.51611c0.332802-2.361612,1.84655-3.695789,4.312908-3.829256
		c0.803719-0.043493,1.596279,0.022457,2.368191,0.270614c1.676552,0.538985,2.741222,1.883206,2.870903,3.640224
		C64.015419,10.207235,64.000633,10.441871,64.000633,10.675415z M60.712234,10.699461
		c-0.118549-0.529577-0.193981-1.078563-0.370178-1.59304c-0.170612-0.498178-0.596169-0.737118-1.12553-0.736846
		c-0.52824,0.000272-0.936058,0.239082-1.133114,0.732685c-0.402092,1.007189-0.41592,2.03798-0.050446,3.056237
		c0.187099,0.521282,0.600163,0.802566,1.162075,0.808654c0.576069,0.006239,1.011711-0.265293,1.194553-0.807656
		C60.54398,11.70154,60.603191,11.2115,60.712234,10.699461z"/>
	<path fill="#006838" d="M52.720314,6.241493c0.379391,0,0.709461-0.010422,1.038654,0.00217
		c0.684155,0.02617,1.008732,0.355402,1.006744,1.002777c-0.00198,0.644413-0.335701,0.985198-1.007248,1.01055
		c-0.329311,0.012433-0.659481,0.002155-1.004929,0.002155c-0.012844,0.114177-0.03006,0.196494-0.030182,0.278836
		c-0.001766,1.204528-0.003128,2.409062-0.000309,3.613585c0.001064,0.45569,0.084221,0.534173,0.52906,0.556507
		c0.171265,0.0086,0.342865,0.027595,0.512157,0.05513c0.625854,0.101798,0.911633,0.382027,0.990429,0.961222
		c0.076714,0.563924-0.177601,1.087718-0.725079,1.270441c-1.117493,0.372965-2.253693,0.409615-3.330761-0.132648
		c-0.86689-0.436443-1.206062-1.243439-1.232044-2.163668c-0.037102-1.314143-0.016907-2.629906-0.021049-3.944978
		c-0.000454-0.145446-0.000057-0.290894-0.000057-0.495279c-0.255089,0-0.483768,0.01053-0.711178-0.001998
		c-0.651348-0.035879-0.966965-0.367448-0.969704-1.004659c-0.002777-0.646216,0.300076-0.968523,0.958691-1.006367
		c0.218666-0.012565,0.438663-0.001983,0.690895-0.001983c0.012428-0.138219,0.028057-0.242633,0.030098-0.347312
		c0.006947-0.356293-0.005642-0.713582,0.016079-1.068848c0.048836-0.798794,0.475616-1.257054,1.266495-1.385788
		c1.244152-0.202515,1.969784,0.401999,1.992271,1.664074C52.725666,5.45998,52.720314,5.814755,52.720314,6.241493z"/>
	<path fill="#006838" d="M34.554085,10.663272c-0.000031-0.958282-0.004276-1.916586,0.000969-2.874838
		c0.007771-1.420282,1.315109-2.197619,2.58511-1.540672c0.553123,0.286119,0.783497,0.781674,0.788212,1.363656
		c0.016514,2.039215,0.029858,4.079035-0.003777,6.11783c-0.016869,1.022568-0.693722,1.57571-1.75465,1.552162
		c-0.978886-0.021729-1.589718-0.639183-1.615143-1.632727c-0.000629-0.02456-0.000664-0.049139-0.000664-0.073709
		C34.554108,12.604406,34.554115,11.63384,34.554085,10.663272z"/>
	<path fill="#006838" d="M36.246048,5.463931c-0.887825,0.001369-1.588802-0.712067-1.599842-1.628272
		c-0.011089-0.920886,0.7076-1.655546,1.613132-1.648973c0.894375,0.006492,1.584572,0.725776,1.577236,1.643703
		C37.829212,4.751095,37.136486,5.462559,36.246048,5.463931z"/>
	<path fill-rule="evenodd" clip-rule="evenodd" fill="#006838" d="M43.697075,2.768769l6.445583-0.36096l0.320358,0.177898
		L43.2896,2.987261L43.697075,2.768769z"/>
	<path id="Rectangle_1_copy_1_" fill-rule="evenodd" clip-rule="evenodd" fill="#006838" d="M39.347851,3.530552l8.901432-3.586703
		l0.129181,0.327008l-8.037056,3.246414L39.347851,3.530552z"/>
	<path id="Rectangle_1_copy_2_1_" fill-rule="evenodd" clip-rule="evenodd" fill="#006838" d="M62.817554,5.662351
		L48.230091-0.04951l-0.129177,0.327737l8.868221,5.364931c0,0,1.486649-0.317411,2.769569-0.312978
		C61.245285,5.335343,62.817554,5.662351,62.817554,5.662351z"/>
	<path id="Rectangle_2_copy_2_1_" fill-rule="evenodd" clip-rule="evenodd" fill="#D71F26" d="M43.821079,3.295815
		l1.099857-0.047243v1.770099l-1.099857-0.047243V3.295815z M47.431408,3.140803l1.559727-0.066436v2.118508l-1.559727-0.066436
		V3.140794V3.140803z M45.464958,3.224954l1.298416-0.055362v1.928066l-1.298416-0.056101V3.224954z"/>
	<circle fill="#D71F26" cx="37.564831" cy="3.510994" r="1.780803"/>
</g>
</svg>
