<?xml version="1.0" encoding="iso-8859-1"?>
<!-- Generator: Adobe Illustrator 23.0.0, SVG Export Plug-In . SVG Version: 6.00 Build 0)  -->
<svg version="1.1" id="Layer_1" xmlns="http://www.w3.org/2000/svg" xmlns:xlink="http://www.w3.org/1999/xlink" x="0px" y="0px"
	 viewBox="0 0 73.5522 24.3077" enable-background="new 0 0 73.5522 24.3077" xml:space="preserve">
<path fill-rule="evenodd" clip-rule="evenodd" fill="#B28A34" d="M4.523,0.3676c-0.005-0.053-0.017-0.104-0.034-0.154
	c-0.012-0.032-0.032-0.061-0.058-0.083c-0.022-0.016-0.048-0.025-0.075-0.025H0.179c-0.028-0.001-0.056,0.009-0.078,0.025
	c-0.025,0.023-0.044,0.051-0.055,0.083c-0.018,0.05-0.03,0.101-0.034,0.154C0.003,0.4456,0,0.5236,0,0.6016
	c0,0.076,0.003,0.151,0.012,0.227c0.005,0.052,0.016,0.103,0.034,0.151c0.011,0.033,0.03,0.062,0.055,0.085
	c0.022,0.018,0.049,0.028,0.078,0.028h1.484v4.784c-0.001,0.031,0.01,0.06,0.03,0.083c0.026,0.029,0.06,0.05,0.098,0.06
	c0.06,0.018,0.122,0.031,0.185,0.037c0.194,0.018,0.389,0.018,0.582,0c0.063-0.006,0.125-0.019,0.185-0.037
	c0.039-0.01,0.073-0.031,0.099-0.06c0.019-0.023,0.03-0.052,0.03-0.083v-4.784h1.484c0.027,0,0.054-0.01,0.075-0.028
	c0.026-0.023,0.046-0.052,0.058-0.085c0.017-0.048,0.029-0.099,0.034-0.151c0.008-0.076,0.012-0.151,0.011-0.227
	C4.535,0.5236,4.531,0.4456,4.523,0.3676 M10.138,1.6676c-0.102-0.348-0.28-0.668-0.522-0.938c-0.237-0.251-0.533-0.441-0.861-0.55
	c-0.384-0.126-0.785-0.186-1.188-0.179c-0.423-0.008-0.844,0.065-1.239,0.216c-0.342,0.134-0.649,0.346-0.896,0.619
	c-0.249,0.284-0.435,0.618-0.544,0.979c-0.128,0.421-0.189,0.858-0.184,1.297c-0.008,0.458,0.05,0.916,0.172,1.358
	c0.097,0.35,0.273,0.674,0.515,0.945c0.237,0.252,0.532,0.442,0.859,0.552c0.389,0.128,0.797,0.189,1.206,0.181
	c0.421,0.008,0.84-0.064,1.234-0.213c0.343-0.134,0.65-0.346,0.895-0.62c0.251-0.286,0.436-0.624,0.545-0.988
	c0.128-0.429,0.19-0.874,0.183-1.321C10.322,2.5536,10.263,2.1026,10.138,1.6676 M8.974,3.8746c-0.044,0.235-0.131,0.46-0.258,0.663
	c-0.12,0.188-0.286,0.342-0.481,0.449c-0.23,0.117-0.485,0.175-0.743,0.165c-0.253,0.01-0.505-0.04-0.737-0.143
	c-0.192-0.094-0.354-0.239-0.467-0.421c-0.123-0.203-0.207-0.428-0.247-0.662c-0.051-0.289-0.076-0.581-0.073-0.874
	c-0.001-0.266,0.024-0.531,0.075-0.792c0.044-0.232,0.132-0.454,0.259-0.654c0.122-0.185,0.287-0.339,0.481-0.447
	c0.229-0.118,0.484-0.177,0.742-0.168c0.252-0.008,0.503,0.043,0.733,0.15c0.191,0.095,0.353,0.241,0.469,0.421
	c0.124,0.201,0.209,0.424,0.249,0.657c0.052,0.281,0.076,0.565,0.074,0.85C9.051,3.3396,9.026,3.6096,8.974,3.8746 M15.633,5.7646
	c-0.035-0.086-0.076-0.169-0.121-0.25l-1.772-2.683l1.625-2.134c0.077-0.119,0.128-0.206,0.156-0.261
	c0.026-0.05,0.04-0.105,0.041-0.161c0.001-0.03-0.009-0.059-0.027-0.083c-0.026-0.029-0.061-0.05-0.099-0.062
	c-0.061-0.019-0.125-0.032-0.19-0.038c-0.1-0.01-0.201-0.015-0.302-0.014c-0.119,0-0.217,0.003-0.293,0.009
	c-0.063,0.004-0.126,0.015-0.188,0.032c-0.085,0.023-0.157,0.082-0.197,0.161l-1.735,2.523v-2.528c0-0.031-0.01-0.062-0.028-0.087
	c-0.026-0.029-0.059-0.05-0.096-0.06c-0.06-0.018-0.121-0.03-0.184-0.037c-0.193-0.018-0.389-0.018-0.583,0
	c-0.063,0.007-0.125,0.019-0.186,0.037c-0.038,0.01-0.072,0.031-0.098,0.06c-0.02,0.024-0.03,0.056-0.03,0.087v5.592
	c0,0.032,0.01,0.063,0.03,0.088c0.027,0.028,0.06,0.05,0.098,0.061c0.06,0.02,0.122,0.033,0.186,0.039
	c0.194,0.019,0.39,0.019,0.583,0c0.063-0.006,0.124-0.019,0.184-0.039c0.037-0.011,0.07-0.032,0.096-0.061
	c0.018-0.026,0.028-0.057,0.028-0.088v-2.816l1.79,2.816c0.022,0.043,0.052,0.081,0.089,0.111c0.057,0.037,0.121,0.061,0.188,0.068
	c0.142,0.019,0.285,0.026,0.428,0.023c0.104,0.001,0.208-0.004,0.312-0.014c0.066-0.005,0.131-0.018,0.195-0.039
	c0.038-0.01,0.071-0.033,0.095-0.064c0.017-0.027,0.026-0.057,0.026-0.089C15.652,5.8296,15.645,5.7966,15.633,5.7646
	 M21.198,1.6676c-0.102-0.348-0.28-0.668-0.522-0.938c-0.238-0.251-0.534-0.441-0.862-0.55c-0.383-0.126-0.784-0.186-1.188-0.179
	c-0.423-0.008-0.843,0.065-1.238,0.216c-0.343,0.135-0.649,0.346-0.896,0.619c-0.25,0.284-0.435,0.618-0.545,0.979
	c-0.127,0.421-0.189,0.858-0.183,1.297c-0.008,0.458,0.049,0.916,0.172,1.358c0.097,0.35,0.273,0.674,0.515,0.945
	c0.236,0.252,0.531,0.442,0.859,0.552c0.389,0.128,0.797,0.19,1.206,0.181c0.422,0.009,0.841-0.064,1.235-0.213
	c0.343-0.133,0.649-0.345,0.895-0.619c0.25-0.287,0.436-0.624,0.545-0.989c0.128-0.428,0.19-0.874,0.183-1.321
	C21.383,2.5536,21.323,2.1026,21.198,1.6676 M20.034,3.8746c-0.043,0.235-0.131,0.46-0.258,0.663
	c-0.121,0.188-0.286,0.342-0.481,0.449c-0.23,0.117-0.485,0.175-0.742,0.165c-0.254,0.01-0.506-0.04-0.738-0.143
	c-0.192-0.094-0.354-0.239-0.467-0.421c-0.124-0.203-0.207-0.428-0.247-0.662c-0.051-0.289-0.076-0.581-0.073-0.874
	c-0.002-0.266,0.024-0.531,0.075-0.792c0.044-0.232,0.132-0.454,0.259-0.654c0.122-0.185,0.287-0.339,0.481-0.447
	c0.229-0.118,0.484-0.177,0.742-0.168c0.252-0.008,0.503,0.043,0.733,0.15c0.191,0.095,0.353,0.241,0.469,0.421
	c0.124,0.201,0.209,0.424,0.249,0.657c0.052,0.281,0.076,0.565,0.074,0.85C20.111,3.3396,20.086,3.6096,20.034,3.8746"/>
<path d="M0.7862,24.0157h3.503v-6.371h2.795v6.371h3.503V9.1017h-3.503v5.578h-2.795v-5.578h-3.503V24.0157z M17.5082,19.5247
	c0,1.4-0.105,2.444-1.106,2.444c-1.126,0-1.147-1.044-1.147-2.047v-0.648h-3.253v0.919c0,2.611,1.293,4.115,4.442,4.115
	c3.462,0,4.567-2.005,4.567-4.783V9.1017h-3.503V19.5247z M23.1782,24.0157h3.253v-3.76h-3.253V24.0157z M34.0822,24.0157h3.503
	V9.1017h-3.503V24.0157z M39.8162,24.0157h4.838c4.609,0,5.296-2.527,5.296-7.937c0-5.181-1.481-6.977-4.942-6.977h-5.192V24.0157z
	 M43.3192,11.6917h0.98c1.857,0,2.148,0.982,2.148,4.616c0,4.47-0.562,5.118-2.19,5.118h-0.938V11.6917z M57.9362,18.4597h-2.545
	l1.231-6.642h0.042L57.9362,18.4597z M50.7412,24.0157h3.629l0.521-2.841h3.565l0.543,2.841h3.628l-3.711-14.914h-4.379
	L50.7412,24.0157z M63.7522,24.0157h3.503v-6.371h2.794v6.371h3.503V9.1017h-3.503v5.578h-2.794v-5.578h-3.503V24.0157z"/>
<path fill="#B28A34" d="M23.1779,23.7323h3.254v-3.76h-3.254V23.7323z M7.0839,8.8183v5.578h-2.795v-5.578h-3.503v14.914h3.503
	v-6.371h2.795v6.371h3.503V8.8183H7.0839z M17.5079,8.8183v10.423c0,1.4-0.104,2.444-1.105,2.444c-1.126,0-1.147-1.044-1.147-2.047
	v-0.648h-3.253v0.919c0,2.611,1.293,4.115,4.441,4.115c3.462,0,4.567-2.005,4.567-4.784V8.8183H17.5079z M34.0829,23.7323h3.503
	V8.8183h-3.503V23.7323z M43.3189,11.4083h0.98c1.857,0,2.149,0.981,2.149,4.617c0,4.469-0.563,5.117-2.19,5.117h-0.939V11.4083z
	 M39.8169,8.8183v14.914h4.838c4.608,0,5.295-2.528,5.295-7.937c0-5.18-1.48-6.977-4.941-6.977H39.8169z M56.6219,11.5343h0.042
	l1.272,6.642h-2.544L56.6219,11.5343z M54.5379,8.8183l-3.796,14.914h3.628l0.522-2.841h3.564l0.543,2.841h3.629l-3.712-14.914
	H54.5379z M70.0489,8.8183v5.578h-2.793v-5.578h-3.504v14.914h3.504v-6.371h2.793v6.371h3.503V8.8183H70.0489z"/>
</svg>
