<?xml version="1.0" encoding="utf-8"?>
<!-- Generator: Adobe Illustrator 23.0.0, SVG Export Plug-In . SVG Version: 6.00 Build 0)  -->
<svg version="1.1" id="Layer_1" xmlns="http://www.w3.org/2000/svg" xmlns:xlink="http://www.w3.org/1999/xlink" x="0px" y="0px"
	 width="65.760002px" height="16.32px" viewBox="0 0 65.760002 16.32" enable-background="new 0 0 65.760002 16.32"
	 xml:space="preserve">
<linearGradient id="Hj._Sumiyati_2_" gradientUnits="userSpaceOnUse" x1="0.41003" y1="7.79" x2="64.609612" y2="7.79">
	<stop  offset="0.089385" style="stop-color:#F8CE0E"/>
	<stop  offset="0.137489" style="stop-color:#F7C413"/>
	<stop  offset="0.228736" style="stop-color:#F6AA1B"/>
	<stop  offset="0.331461" style="stop-color:#F6891F"/>
	<stop  offset="0.462118" style="stop-color:#FFD100"/>
	<stop  offset="0.508804" style="stop-color:#FFCE02"/>
	<stop  offset="0.55263" style="stop-color:#FFC60A"/>
	<stop  offset="0.595313" style="stop-color:#FDB813"/>
	<stop  offset="0.637049" style="stop-color:#FAA51A"/>
	<stop  offset="0.659218" style="stop-color:#F8981D"/>
	<stop  offset="0.840782" style="stop-color:#FBAB18"/>
	<stop  offset="1" style="stop-color:#EF5522"/>
</linearGradient>
<path id="Hj._Sumiyati_1_" fill-rule="evenodd" clip-rule="evenodd" fill="url(#Hj._Sumiyati_2_)" d="M9.15209,15.00875
	c-0.405762,0-0.704102-0.104492-0.887695-0.311523c-0.191895-0.231445-0.287598-0.521484-0.272461-0.817383
	c0-0.219727,0.125-0.458008,0.370605-0.703125c0.289551-0.279297,0.604004-0.533203,0.935059-0.757813
	c0.386719-0.269531,0.839355-0.561523,1.356445-0.875c0.328125-0.198242,0.666992-0.407227,1.01709-0.626953l-0.039063-0.071289
	c-0.158203-0.308594-0.278809-0.634766-0.358887-0.969727c-0.09668-0.414063-0.143066-0.838867-0.137695-1.263184
	c-0.00293-0.40625,0.027832-0.817871,0.091797-1.221191c0.050293-0.319336,0.116699-0.635742,0.199219-0.947754
	c0.057129-0.214844,0.12793-0.427734,0.210449-0.63623C11.489492,5.851035,10.31127,6.17916,10.31127,6.17916
	c-0.178223,0.394043-0.413086,0.836426-0.643555,1.278809c-0.229492,0.440918-0.434082,0.862305-0.612793,1.26416
	C8.893789,9.079062,8.749746,9.453086,8.627676,9.833945c-0.095215,0.28125-0.147949,0.572266-0.156738,0.865234l-0.004395,0.199219
	c-0.00293,0.073242-0.012695,0.144531-0.029785,0.216797c-0.016602,0.071289-0.050293,0.138672-0.097168,0.193359
	c-0.053711,0.0625-0.131348,0.098633-0.213379,0.098633c-0.131348-0.00293-0.251465-0.045898-0.34668-0.120117
	c-0.10498-0.079102-0.193359-0.177734-0.262207-0.291992c-0.159668-0.261719-0.244141-0.564453-0.243652-0.873047
	c0.005859-0.277344,0.049805-0.548828,0.130371-0.810547c0.092773-0.310547,0.208984-0.620117,0.346191-0.918457
	c0.144531-0.318848,0.310547-0.649902,0.49707-0.993652c0.150391-0.276367,0.309082-0.555176,0.475586-0.835938
	c-0.388184,0.084961-0.763184,0.158691-1.125,0.221191C7.229727,6.8525,6.852285,6.890586,6.477285,6.896934
	c-0.001953,0-0.004395,0-0.006348,0c-0.224609,0-0.406738-0.040039-0.571289-0.115723
	C5.757071,6.71334,5.634512,6.620078,5.533438,6.502891c-0.083496-0.09668-0.145996-0.207031-0.185547-0.327148
	c-0.026855-0.077148-0.043945-0.15918-0.049805-0.242188c0.008301-0.161621,0.073242-0.225586,0.153809-0.23291
	c0.000488,0,0.001465,0,0.001953,0c0.067871,0,0.125,0.020996,0.17041,0.059082
	C5.655996,5.782676,5.6975,5.806113,5.742422,5.824668c0.081543,0.03418,0.169434,0.059082,0.260254,0.074707
	c0.144043,0.022949,0.290527,0.035156,0.437012,0.035156c0.222168-0.000977,0.407715-0.009766,0.620117-0.027344
	c0.213867-0.018066,0.443848-0.042969,0.691406-0.076172l0.780273-0.10791c0.271484-0.038574,0.544434-0.082031,0.818848-0.129883
	l0.609863-1.074219c0.217773-0.360352,0.411133-0.702637,0.581055-1.024902c0.152832-0.286133,0.289063-0.580078,0.408691-0.880859
	c0.090332-0.211426,0.140137-0.432617,0.149902-0.660645c-0.000488-0.080078-0.007324-0.165039-0.020996-0.249512
	c-0.013184-0.080078-0.04834-0.154785-0.102051-0.214844c-0.074219-0.078613-0.169922-0.139648-0.274902-0.173828
	c-0.162598-0.05127-0.332031-0.077148-0.50293-0.077148c-0.67627,0.001465-1.265137,0.058105-1.84082,0.169922
	C7.801992,1.515586,7.249746,1.669883,6.716543,1.865195c-0.505859,0.185547-1.003418,0.40918-1.478516,0.664063
	c-0.44043,0.235352-0.870605,0.500488-1.278809,0.788086C3.593984,3.574668,3.242422,3.856406,2.912832,4.154258
	C2.635488,4.404746,2.37084,4.673789,2.126211,4.954551C1.942129,5.162559,1.776602,5.389609,1.633535,5.63082
	c-0.09082,0.139648-0.145508,0.296387-0.161133,0.45752C1.467031,6.222617,1.365957,6.31832,1.243398,6.31832
	c-0.000977,0-0.002441,0-0.003906,0c-0.144043,0-0.254395-0.031738-0.351074-0.091797
	C0.761953,6.153769,0.65209,6.055137,0.564687,5.935508c-0.10498-0.13916-0.159668-0.312988-0.154297-0.48877
	c0-0.145996,0.09375-0.358887,0.294922-0.666504c0.244629-0.35498,0.527344-0.682617,0.841797-0.975586
	c0.422852-0.400391,0.881836-0.771973,1.36377-1.10498c0.586426-0.40625,1.215821-0.758301,1.871094-1.045898
	c0.757813-0.333984,1.550781-0.596191,2.35791-0.778809C8.034414,0.673301,8.952871,0.57125,9.870352,0.57125
	c0.371094,0,0.652832,0.021484,0.931152,0.064453c0.257324,0.037109,0.509766,0.11084,0.749023,0.218262
	C11.76,0.947227,11.949453,1.08834,12.097403,1.262168c0.146484,0.180176,0.223145,0.404297,0.217285,0.632813
	c-0.011719,0.220703-0.057617,0.433594-0.137207,0.63623c-0.086914,0.245117-0.20459,0.526367-0.353027,0.841309
	c-0.147461,0.3125-0.319336,0.650879-0.514648,1.015137l-0.506836,0.942871c0.208496-0.039551,1.177246-0.230469,1.177246-0.230469
	c-0.001465,0-0.002441,0-0.003906,0c-0.039551,0-0.017578-0.049316,0.001953-0.099609
	c0.015137-0.042969,0.035645-0.087402,0.060059-0.130371l0.054688-0.100098c0.280762-0.502441,0.54834-0.953125,0.800781-1.349609
	c0.108887-0.169434,0.220703-0.335449,0.335449-0.498047c0.115723-0.164551,0.228516-0.311035,0.338379-0.438965
	c0.094727-0.11377,0.20166-0.220215,0.316406-0.316895c0.07959-0.076172,0.189941-0.127441,0.305664-0.139648
	c0.002441,0,0.004883,0,0.007324,0c0.167969,0,0.295898,0.040527,0.405762,0.115723
	c0.098145,0.061035,0.164551,0.170898,0.172852,0.290527c-0.055176,0.161621-0.121582,0.267578-0.20459,0.361328
	c-0.113281,0.15332-0.26123,0.370605-0.44043,0.644043c-0.178223,0.273926-0.371582,0.595215-0.580078,0.964844
	c-0.218262,0.389648-0.412598,0.796875-0.578125,1.209473c-0.183594,0.45752-0.333008,0.931641-0.444824,1.409668
	c-0.118164,0.504395-0.177734,1.023926-0.176758,1.544434c-0.007813,0.496582,0.082031,0.997559,0.260742,1.459473
	c0.172363-0.256836,0.34082-0.517578,0.506836-0.780273c0.280762-0.446289,0.54834-0.880859,0.802246-1.305664
	c0.254395-0.423828,0.487305-0.826172,0.699219-1.205566c0.212402-0.379395,0.394531-0.716797,0.546387-1.012207
	c0.151855-0.294434,0.270508-0.537598,0.356934-0.730957c0.058594-0.112793,0.099609-0.226563,0.123535-0.34375
	c-0.001953-0.111816,0.161621-0.133789,0.215332-0.141113c0.023438-0.000488,0.04541-0.000977,0.065918-0.000977
	c0.125977,0,0.195801,0.013672,0.263184,0.037109c0.127441,0.044922,0.240234,0.124023,0.32666,0.228027
	c0.111328,0.143066,0.165039,0.318848,0.152832,0.49707c-0.036133,0.177734-0.09375,0.335449-0.17334,0.481445
	c-0.105469,0.229004-0.254395,0.523926-0.443848,0.879395c-0.189453,0.354004-0.414551,0.753418-0.675781,1.198242
	c-0.175293,0.298828-0.36084,0.606445-0.556641,0.923828c0.486816-0.385742,0.960449-0.79541,1.412109-1.222168
	c0.583008-0.549805,1.11377-1.160156,1.577637-1.813477c0.038574-0.05127,0.092285-0.088379,0.152832-0.105469l0.167969,0.016602
	c0.052734,0.029297,0.088867,0.074707,0.104004,0.129395c0.016113,0.067383,0.000488,0.136719-0.041504,0.188477
	c-0.204102,0.36377-0.455566,0.721191-0.738281,1.048828c-0.304199,0.355469-0.634766,0.69873-0.982422,1.019043
	c-0.358398,0.330566-0.740723,0.655762-1.147461,0.975098c-0.404785,0.318359-0.821289,0.62793-1.248047,0.928711
	c-0.243652,0.386719-0.524414,0.800781-0.81543,1.214844c0.158203,0.148438,0.308105,0.290039,0.467285,0.421875
	c0.108398,0.089844,0.223145,0.173828,0.343262,0.248047c0.060547,0.023438,0.125488,0.074219,0.172363,0.138672
	c0.018066,0.181641-0.103516,0.270508-0.194824,0.327148c-0.130371,0.078125-0.278809,0.119141-0.431152,0.119141
	c-0.165527-0.007813-0.30127-0.038086-0.430664-0.088867c-0.180176-0.066406-0.353516-0.15625-0.51416-0.266602l-0.046387-0.032227
	l-0.244629,0.318359c-0.294922,0.375977-0.588379,0.726563-0.880371,1.050781
	c-0.266602,0.299805-0.551758,0.586914-0.847168,0.852539c-0.237305,0.216797-0.501465,0.410156-0.785156,0.574219
	c-0.213379,0.129883-0.461426,0.205078-0.714844,0.214844H9.154043H9.15209z M10.588125,12.177695
	c-0.42334,0.265625-0.792969,0.508789-1.109863,0.729492c-0.261719,0.177734-0.510742,0.373047-0.744629,0.584961
	c-0.213379,0.199219-0.245117,0.308594-0.245117,0.356445c-0.000977,0.048828,0.008789,0.09668,0.027344,0.139648
	c0.099121,0.098633,0.146973,0.111328,0.194336,0.111328c0.236816-0.013672,0.442383-0.085938,0.617188-0.210938
	c0.275879-0.183594,0.530762-0.392578,0.759766-0.623047c0.293945-0.290039,0.578613-0.604492,0.84668-0.935547
	c0.188965-0.231445,0.379395-0.474609,0.571289-0.728516L10.588125,12.177695z M43.903553,14.972617
	c-0.40625,0-0.703125-0.104492-0.882813-0.3125c-0.188477-0.232422-0.283203-0.521484-0.267578-0.81543
	c0.000977-0.207031,0.113281-0.431641,0.333008-0.662109c0.259766-0.259766,0.541992-0.49707,0.841797-0.704102
	c0.347656-0.249023,0.756836-0.516602,1.227539-0.802734c0.46582-0.28418,0.962891-0.59375,1.488281-0.928711
	c0.280273-0.365234,0.568359-0.744141,0.84082-1.111328c0.074219-0.100586,0.146484-0.199219,0.216797-0.293945
	c-0.084961,0.076172-0.172852,0.150391-0.263672,0.220703C47.264881,9.69918,47.077381,9.817344,46.882069,9.915
	c-0.172852,0.089844-0.370117,0.140625-0.568359,0.144531c-0.000977,0-0.00293,0-0.003906,0
	c-0.231445,0-0.417969-0.091797-0.535156-0.246094c-0.124023-0.182617-0.183594-0.399414-0.172852-0.613281
	c0.007813-0.161133,0.042969-0.322266,0.102539-0.473633c-0.140625,0.15625-0.279297,0.303711-0.417969,0.441406
	c-0.222656,0.227539-0.46582,0.439453-0.720703,0.628906c-0.242188,0.176758-0.443359,0.262695-0.616211,0.262695
	c-0.003906,0-0.006836,0-0.010742,0c-0.192383,0-0.336914-0.041016-0.462891-0.117188
	c-0.104492-0.071289-0.1875-0.15918-0.25-0.264648c-0.064453-0.124023-0.099609-0.256836-0.103516-0.388672
	c0.011719-0.205078,0.05957-0.396484,0.141602-0.575684c-0.143555,0.161621-0.287109,0.312988-0.427734,0.45459
	c-0.222656,0.226563-0.464844,0.438477-0.72168,0.629883c-0.242188,0.176758-0.444336,0.261719-0.616211,0.261719
	c-0.003906,0-0.006836,0-0.010742,0c-0.193359,0-0.337891-0.041016-0.462891-0.118164
	c-0.104492-0.070313-0.1875-0.158203-0.25-0.263672c-0.064453-0.124023-0.099609-0.256836-0.103516-0.388672
	c0.00293-0.345703,0.077148-0.678711,0.219727-0.992188c0.144531-0.328125,0.316406-0.647461,0.509766-0.946777
	c0.189453-0.29541,0.393555-0.581543,0.612305-0.856934c0.207031-0.261719,0.380859-0.490723,0.521484-0.6875
	c0.107422-0.137207,0.1875-0.284668,0.242188-0.441895c0.00293-0.019531-0.017578-0.037598-0.102539-0.037598
	c-0.066406,0-0.188477,0.03125-0.389648,0.181641c-0.204102,0.158203-0.396484,0.333496-0.574219,0.522949
	c-0.212891,0.220703-0.433594,0.472168-0.666016,0.754395c-0.232422,0.283691-0.463867,0.573242-0.693359,0.869141
	c-0.231445,0.295898-0.455078,0.585449-0.669922,0.870117c-0.21582,0.285156-0.411133,0.538086-0.583984,0.759766
	c-0.175781,0.224609-0.326172,0.404297-0.449219,0.541016c-0.178711,0.194336-0.260742,0.233398-0.330078,0.233398l0,0
	c-0.100586,0-0.19043-0.017578-0.273438-0.052734c-0.074219-0.030273-0.145508-0.070313-0.209961-0.120117
	c-0.052734-0.039063-0.100586-0.086914-0.140625-0.140625L37.67992,9.726523l-0.044922-0.107422
	c0.011719-0.199219,0.05957-0.363281,0.140625-0.514648c0.100586-0.211914,0.214844-0.421875,0.339844-0.625488
	c0.137695-0.228516,0.292969-0.469727,0.464844-0.722656l0.496094-0.73584c0.170898-0.253906,0.324219-0.487305,0.46875-0.708984
	c0.123047-0.185547,0.233398-0.37793,0.330078-0.57666c0.063477-0.118652,0.103516-0.243652,0.12207-0.374512
	c-0.03125-0.008301-0.061523-0.012695-0.092773-0.012695c-0.099609,0-0.207031,0.045898-0.360352,0.160156
	c-0.203125,0.157227-0.394531,0.33252-0.569336,0.522461c-0.208984,0.220703-0.429688,0.472168-0.661133,0.754883
	c-0.232422,0.283691-0.461914,0.572754-0.689453,0.868652c0,0-1.074219,1.408691-1.248047,1.630371
	c-0.175781,0.223633-0.323242,0.40332-0.445313,0.539063c-0.147461,0.166992-0.242188,0.235352-0.325195,0.235352
	c-0.094727,0-0.186523-0.017578-0.271484-0.051758c-0.076172-0.03125-0.148438-0.072266-0.211914-0.12207
	c-0.053711-0.039063-0.102539-0.087891-0.141602-0.141602l-0.012695-0.017578l-0.044922-0.107422
	c0.058594-0.172852,0.120117-0.279297,0.191406-0.381836c0.114258-0.180664,0.569336-0.920898,0.639648-1.036621
	c-0.03125,0.037109-0.061523,0.074707-0.092773,0.112305c-0.262695,0.316895-0.520508,0.602051-0.775391,0.855957
	c-0.220703,0.225586-0.462891,0.4375-0.719727,0.628906c-0.241211,0.176758-0.442383,0.261719-0.617188,0.261719
	c-0.003906,0-0.008789,0-0.012695,0c-0.188965,0-0.330566-0.037109-0.457031-0.105469
	c-0.106934-0.067383-0.192871-0.155273-0.253418-0.257813c-0.063965-0.114258-0.099609-0.241211-0.104004-0.370117
	c0.013672-0.223633,0.069336-0.439453,0.161621-0.635742c-0.117188,0.130859-0.243164,0.264648-0.376953,0.401367
	c-0.164551,0.167969-0.34082,0.326172-0.526365,0.47168c-0.172852,0.135742-0.359863,0.253906-0.555664,0.351563
	c-0.172852,0.089844-0.370117,0.140625-0.567871,0.144531c-0.001465,0-0.00293,0-0.004395,0
	c-0.22998,0-0.416016-0.091797-0.534668-0.244141c-0.125488-0.186523-0.184082-0.396484-0.173828-0.614258
	c0.01123-0.213867,0.069336-0.427246,0.168945-0.616699c0.119141-0.247559,0.252441-0.492676,0.398926-0.729492
	c0.15918-0.260254,0.331543-0.535156,0.517578-0.823242c0.184082-0.286133,0.35791-0.570801,0.522461-0.854492
	c0.155273-0.266113,0.294432-0.541992,0.41699-0.824707c0.104492-0.233887,0.172852-0.479004,0.203613-0.731445
	c-0.000977-0.04834,0.034668-0.120117,0.203125-0.120117c0.143555,0.007324,0.251465,0.035156,0.351563,0.08252
	c0.119141,0.054199,0.225098,0.131348,0.313965,0.229492c0.106445,0.117188,0.162109,0.268555,0.15625,0.42627
	c-0.016113,0.253906-0.083008,0.494141-0.200195,0.71582c-0.125,0.268066-0.277344,0.557129-0.455566,0.861816
	c-0.177246,0.303711-0.365723,0.60791-0.564453,0.911621c-0.196775,0.300781-0.364744,0.570313-0.504393,0.809082
	c-0.112793,0.181641-0.205078,0.372559-0.274902,0.570801c-0.023438,0.075195-0.013672,0.098633-0.013672,0.099609
	c0.143066-0.017578,0.270508-0.073242,0.375-0.164063c0.195313-0.146484,0.372557-0.305176,0.536619-0.477539
	c0.193359-0.199707,0.396484-0.428223,0.610352-0.686523c0.214844-0.259277,0.428223-0.526367,0.640137-0.80127
	c0.212891-0.274902,0.418945-0.546875,0.619141-0.815918c0.200195-0.270508,0.388672-0.516113,0.5625-0.738281
	c0.053711-0.130859,0.105469-0.288574,0.142578-0.450684c0.038086-0.149414,0.063477-0.299316,0.079102-0.450684l0.009766-0.089355
	l0.171875-0.028809c0.167969,0.012695,0.275391,0.043457,0.375,0.092773c0.117188,0.056641,0.22168,0.133301,0.310547,0.227539
	c0.105469,0.109863,0.163086,0.260742,0.158203,0.413086c-0.014648,0.249023-0.080078,0.486328-0.195313,0.708008
	c-0.12207,0.262207-0.270508,0.542969-0.443359,0.839355c-0.169922,0.294922-0.352539,0.589844-0.544922,0.884766
	c-0.19043,0.291504-0.353516,0.553711-0.486328,0.785645c-0.107422,0.174805-0.194336,0.360352-0.261719,0.553711
	c0.021484,0.03125,0.049805,0.046875,0.084961,0.046875c0.0625,0,0.147461-0.048828,0.268555-0.148438
	c0.195313-0.164551,0.380859-0.341797,0.555664-0.529785c0.206055-0.217773,0.418945-0.458496,0.638672-0.723145
	c0.220703-0.265625,0.429688-0.526855,0.626953-0.783203l0.533203-0.704102l0.327148-0.440918l0.105469-0.259766
	c0.112305-0.260742,0.185547-0.535156,0.217773-0.818359c0-0.078125,0.073242-0.131348,0.21875-0.146973
	c0.012695,0,0.025391,0,0.037109,0c0.132813,0,0.212891,0.014648,0.290039,0.041504
	c0.114258,0.037598,0.223633,0.100586,0.31543,0.180664c0.114258,0.106445,0.173828,0.254883,0.164063,0.40918
	c-0.008789,0.195313-0.052734,0.386719-0.129883,0.567383c-0.079102,0.210938-0.166992,0.418457-0.260742,0.618652
	c-0.014648,0.030273-0.02832,0.060059-0.041992,0.089355l0.081055-0.097168c0.154297-0.181152,0.327148-0.374023,0.519531-0.578613
	c0.194336-0.206055,0.399414-0.400391,0.614258-0.583008c0.204102-0.174316,0.425781-0.327637,0.65918-0.455566
	c0.196289-0.115234,0.424805-0.180664,0.65625-0.1875c0.001953,0,0.004883,0,0.006836,0
	c0.224609,0,0.394531,0.083008,0.509766,0.226074c0.120117,0.185059,0.173828,0.38916,0.160156,0.598633
	c-0.012695,0.172363-0.05957,0.338379-0.140625,0.493652c-0.0625,0.135742-0.129883,0.271973-0.202148,0.40625
	c0.136719-0.157715,0.291016-0.324219,0.459961-0.499512c0.200195-0.205566,0.407227-0.399414,0.623047-0.581543
	c0.203125-0.174316,0.425781-0.327637,0.65918-0.455566c0.197266-0.115234,0.424805-0.180664,0.655273-0.1875
	c0.001953,0,0.003906,0,0.006836,0c0.225586,0,0.395508,0.083008,0.509766,0.226563
	c0.118164,0.181152,0.172852,0.391113,0.161133,0.598145c-0.011719,0.271484-0.087891,0.541016-0.21875,0.778809
	c-0.148438,0.29248-0.316406,0.578613-0.50293,0.852539c-0.196289,0.288574-0.397461,0.570801-0.605469,0.847656
	c-0.204102,0.273438-0.375,0.516113-0.511719,0.726563c-0.108398,0.149902-0.183594,0.312012-0.224609,0.48584
	c0.009766,0.050781,0.03418,0.074219,0.130859,0.074219c0.053711,0,0.15625-0.033203,0.345703-0.188477
	c0.195313-0.164551,0.380859-0.342285,0.555664-0.530273c0.205078-0.217773,0.418945-0.458008,0.638672-0.723145
	c0.220703-0.265137,0.429688-0.526367,0.625977-0.782715c0.198242-0.257324,0.375-0.491699,0.53418-0.70459l0.353516-0.479004
	c0.068359-0.129395,0.12793-0.254883,0.182617-0.381836c0.095703-0.20752,0.148438-0.425781,0.158203-0.650879
	c0-0.087891,0.074219-0.139648,0.222656-0.149414c0.005859,0,0.011719,0,0.017578,0c0.129883,0,0.216797,0.013672,0.301758,0.039551
	c0.119141,0.036621,0.227539,0.098145,0.320313,0.183594c0.114258,0.108398,0.172852,0.258301,0.163086,0.412598
	c-0.015625,0.250488-0.083008,0.490723-0.199219,0.713379c-0.125977,0.268066-0.27832,0.555664-0.457031,0.85791
	c-0.176758,0.300293-0.361328,0.602051-0.554688,0.905762c-0.19043,0.30127-0.353516,0.572266-0.491211,0.813477
	c-0.109375,0.182617-0.199219,0.374023-0.271484,0.572266c0.018555,0.03418,0.044922,0.051758,0.081055,0.051758
	c0.05957,0,0.145508-0.047852,0.269531-0.149414c0.195313-0.164551,0.381836-0.341309,0.555664-0.529297
	c0.206055-0.218262,0.418945-0.458984,0.638672-0.723633c0.220703-0.265625,0.429688-0.526855,0.626953-0.783203l0.774414-1.028809
	c0.078125-0.151367,0.157227-0.319336,0.231445-0.489746c0.104492-0.233398,0.173828-0.479004,0.204102-0.731934
	c0-0.030273,0.019531-0.128418,0.205078-0.128418c0.142578,0.007324,0.25,0.034668,0.349609,0.082031
	c0.119141,0.054199,0.225586,0.131836,0.314453,0.22998c0.107422,0.120117,0.163086,0.274414,0.155273,0.43457
	c-0.016602,0.250977-0.083984,0.489746-0.199219,0.711426c-0.136719,0.29248-0.289063,0.581543-0.456055,0.862305
	c-0.177734,0.300293-0.365234,0.602539-0.563477,0.90625c-0.197266,0.30127-0.365234,0.571777-0.504883,0.813477
	c-0.112305,0.183594-0.204102,0.375977-0.274414,0.575195c-0.024414,0.075195-0.014648,0.099609-0.014648,0.099609
	c0.144531-0.018555,0.271484-0.073242,0.375-0.163086c0.195313-0.147461,0.373047-0.305176,0.537109-0.478027
	c0.193359-0.199707,0.396484-0.429688,0.610352-0.690918c0.213867-0.262207,0.427734-0.530762,0.639648-0.805664
	c0.212891-0.274902,0.418945-0.546875,0.619141-0.815918c0.200195-0.270996,0.388672-0.51709,0.5625-0.739258
	c0.053711-0.12793,0.104492-0.283691,0.138672-0.443359c0.033203-0.148926,0.058594-0.29834,0.074219-0.44873
	c0-0.031738,0.019531-0.129883,0.205078-0.129883c0.142578,0.007324,0.250977,0.034668,0.354492,0.081543
	c0.120117,0.053223,0.231445,0.132813,0.319336,0.22998c0.107422,0.121094,0.163086,0.274902,0.155273,0.435059
	c-0.03418,0.176758-0.091797,0.333008-0.172852,0.47998c-0.105469,0.225586-0.254883,0.519043-0.444336,0.874023
	c-0.188477,0.354492-0.414063,0.753906-0.675781,1.19873c-0.174805,0.29834-0.360352,0.606445-0.555664,0.92334
	c0.486328-0.384766,0.959961-0.792969,1.412109-1.217773c0.337891-0.316895,0.660156-0.658203,0.958008-1.013672
	c0.100586-0.154785,0.21582-0.313965,0.338867-0.467285c0.073242-0.091309,0.149414-0.180176,0.228516-0.266113
	c0.069336-0.105469,0.117188-0.14502,0.171875-0.166504c0.09082-0.103027,0.222656-0.22168,0.361328-0.333008
	c0.272461-0.220703,0.575195-0.401855,0.899414-0.539063c0.320313-0.13623,0.661133-0.205566,1.011719-0.205566
	c0.000977,0,0.00293,0,0.004883,0c0.189453,0,0.335938,0.029785,0.476563,0.088379
	c0.128906,0.058594,0.240234,0.146973,0.323242,0.256836c0.084961,0.114746,0.143555,0.242188,0.174805,0.378906
	c0.035156,0.147461,0.052734,0.300781,0.051758,0.454102c-0.00293,0.146484-0.026367,0.289063-0.068359,0.42627
	c0.026367,0.008301,0.052734,0.018066,0.078125,0.028809c0.0625,0.024414,0.121094,0.05127,0.177734,0.07959
	c0.051758,0.024902,0.101563,0.054688,0.149414,0.089355l0.033203,0.024414l0.05957,0.117188
	C56.371326,6.6025,56.313709,6.689902,56.24535,6.768516l-0.371094,0.505859c-0.145508,0.19873-0.293945,0.414551-0.446289,0.646484
	c-0.150391,0.230957-0.277344,0.441895-0.376953,0.634277c-0.083008,0.144043-0.136719,0.297363-0.160156,0.45752l0.089844,0.083008
	c0.042969,0,0.145508-0.024414,0.344727-0.188477c0.195313-0.164551,0.381836-0.341309,0.555664-0.529297
	c0.206055-0.218262,0.418945-0.458984,0.638672-0.723633c0.220703-0.265625,0.429688-0.526855,0.626953-0.783203l0.533203-0.704102
	l0.353516-0.478516c0,0,0.65332-1.004395,0.917969-1.403809c-0.404297-0.001953-0.811523-0.036133-1.210938-0.101074
	c-0.291016-0.04541-0.572266-0.134277-0.836914-0.264648c-0.325195-0.140137-0.536133-0.463867-0.532227-0.822754
	c-0.010742-0.119629,0.049805-0.242676,0.158203-0.3125c0.070313-0.047363,0.154297-0.07666,0.240234-0.08252
	c0.110352,0.029785,0.168945,0.075684,0.210938,0.138184c0.071289,0.06543,0.165039,0.133789,0.264648,0.187012
	c0.182617,0.099121,0.376953,0.178223,0.578125,0.234863c0.324219,0.088379,0.660156,0.141602,0.99707,0.157715l0.276367,0.013184
	l0.464844,0.004395l0.478516-0.794922c0.175781-0.265625,0.327148-0.502441,0.456055-0.710938
	c0.125977-0.206543,0.227539-0.382324,0.300781-0.527344c0.053711-0.088867,0.086914-0.178223,0.102539-0.271973
	c0.027344-0.145996,0.107422-0.208008,0.199219-0.208008c0.160156,0.023438,0.273438,0.074219,0.367188,0.150879
	c0.115234,0.087891,0.217773,0.197266,0.299805,0.32373c0.09082,0.131836,0.139648,0.288086,0.140625,0.449707
	c0,0.07666-0.033203,0.216797-0.292969,0.632813c-0.161133,0.257813-0.360352,0.563477-0.598633,0.91748
	c0.460938-0.028809,0.867188-0.069824,1.208984-0.121582l0.055664-0.008789c-0.016602-0.070313-0.022461-0.143066-0.016602-0.214844
	c-0.003906-0.129395,0.020508-0.263672,0.070313-0.388672c0.042969-0.104004,0.109375-0.197266,0.192383-0.270996
	c0.083008-0.071289,0.176758-0.120605,0.279297-0.147461c0.09668-0.026367,0.199219-0.039551,0.303711-0.039551
	c0.001953,0,0.003906,0,0.005859,0c0.204102,0,0.363281,0.076172,0.47168,0.20752
	c0.099609,0.132324,0.162109,0.285156,0.183594,0.445801c0.00293,0.024902,0.005859,0.049805,0.007813,0.075195l0.013672-0.004395
	c0.094727-0.037598,0.198242-0.063965,0.303715-0.07666c0.005859,0,0.011719,0,0.017578,0
	c0.107422,0,0.196289,0.006348,0.285156,0.018066c0.191406,0.02832,0.211914,0.14209,0.211914,0.189453
	c0,0.101563-0.101563,0.182129-0.387695,0.307617c-0.205078,0.084961-0.41309,0.161133-0.624027,0.227539
	c0.021484,0.006348-0.015625,0.046387-0.057617,0.080566c-0.102539,0.063477-0.202148,0.098145-0.306641,0.111816
	c-0.057617,0.011719-0.123047,0.017578-0.188477,0.017578c-0.05957,0-0.120117-0.004883-0.179688-0.015625
	c-0.232422,0.067383-0.533203,0.134277-0.860352,0.199707c-0.49707,0.098633-1.032227,0.17627-1.59082,0.230469l-0.716797,1.128418
	c-0.274414,0.408691-0.533203,0.809082-0.775391,1.200684c-0.241211,0.390137-0.456055,0.76123-0.643555,1.112305
	c-0.161133,0.291992-0.297852,0.601074-0.40625,0.919434c-0.075195,0.192383-0.099609,0.396973-0.072266,0.596191
	c0.015625,0.066406,0.0625,0.152344,0.27832,0.152344c0.098633-0.008789,0.200195-0.047852,0.286133-0.110352
	c0.15918-0.105469,0.304688-0.219727,0.441406-0.344727c0.164063-0.145508,0.335938-0.312988,0.516602-0.502441
	c0.181641-0.19043,0.360352-0.389648,0.539063-0.597656c0.179688-0.208984,0.355469-0.419434,0.529297-0.631836
	c0.172852-0.211914,0.333008-0.411621,0.478516-0.599609l0.389648-0.506836c0.106445-0.13916,0.188477-0.249512,0.248047-0.332031
	c0.060547-0.121582,0.125977-0.258789,0.185547-0.397949c0.09668-0.20752,0.149414-0.425293,0.158203-0.650879
	c0-0.087891,0.075195-0.139648,0.223633-0.149414c0.005859,0,0.011719,0,0.017578,0c0.129883,0,0.216797,0.013672,0.300781,0.039551
	C62.511951,4.58248,62.62328,4.645957,62.7141,4.729453c0.113281,0.108887,0.171875,0.258789,0.162109,0.412598
	c-0.015625,0.250488-0.083008,0.490723-0.199219,0.713379c-0.125,0.268066-0.27832,0.555664-0.456055,0.85791
	c-0.176758,0.300293-0.362305,0.602051-0.553711,0.905273c-0.19043,0.30127-0.355469,0.572754-0.492188,0.813477
	c-0.109375,0.183105-0.200195,0.374512-0.271484,0.572754c0.018555,0.03418,0.044922,0.051758,0.081055,0.051758
	c0.05957,0,0.145508-0.047852,0.269531-0.149414c0.195313-0.164551,0.380859-0.341797,0.555664-0.529785
	c0.205078-0.217773,0.417969-0.458008,0.637695-0.723145c0.220703-0.265625,0.430664-0.526855,0.626953-0.783203
	c0.196289-0.256836,0.375-0.491699,0.533203-0.703613l0.355469-0.480469c0.032227-0.053223,0.093754-0.096191,0.16309-0.11084
	c0.021484-0.000977,0.039063-0.001465,0.054688-0.001465c0.050781,0,0.077148,0.005859,0.102539,0.015625l0.054688,0.021973
	l0.056641,0.125488c0.007813,0.0625-0.007813,0.124512-0.044922,0.175293l-0.449223,0.619141
	c-0.193359,0.264648-0.405273,0.548828-0.639648,0.851563c-0.235352,0.303223-0.482422,0.612793-0.743164,0.927734
	c-0.262695,0.317383-0.521484,0.602539-0.775391,0.856445c-0.219727,0.224609-0.461914,0.436523-0.719727,0.628906
	c-0.243164,0.176758-0.444336,0.261719-0.617188,0.261719c-0.003906,0-0.006836,0-0.010742,0
	c-0.192383,0-0.336914-0.041016-0.462891-0.117188c-0.104492-0.070313-0.186523-0.158203-0.25-0.262695
	c-0.064453-0.125977-0.098633-0.254883-0.103516-0.389648c0.012695-0.213867,0.063477-0.412109,0.151367-0.59668
	c-0.152344,0.164063-0.310547,0.323242-0.472656,0.477539c-0.244141,0.234375-0.508789,0.446289-0.786133,0.629883
	c-0.208008,0.152344-0.457031,0.243164-0.71875,0.258789c-0.00293,0-0.006836,0-0.009766,0
	c-0.242188,0-0.430664-0.045898-0.598633-0.131836c-0.150391-0.082031-0.28125-0.197266-0.380859-0.334961
	c-0.092773-0.128906-0.158203-0.272461-0.196289-0.425781c-0.032227-0.126953-0.049805-0.258789-0.051758-0.390625
	c0-0.138184,0.035156-0.306152,0.107422-0.509766c-0.013672,0.015625-0.026367,0.03125-0.040039,0.047363
	c-0.264648,0.316406-0.522461,0.601074-0.772461,0.85498c-0.222656,0.228516-0.463867,0.44043-0.716797,0.628906
	c-0.242188,0.176758-0.446289,0.262695-0.625,0.262695c-0.003906,0-0.007813,0-0.011719,0
	c-0.213867,0-0.373047-0.057617-0.49707-0.163086C53.852772,9.795859,53.77953,9.672812,53.74242,9.53707
	c-0.014648-0.058594-0.025391-0.118164-0.03125-0.177734c-0.06543,0.078125-0.133789,0.15332-0.207031,0.223633
	c-0.133789,0.125-0.280273,0.233398-0.4375,0.324219c-0.163086,0.098633-0.353516,0.151367-0.546875,0.152344
	c-0.155273-0.00293-0.301758-0.029297-0.438477-0.077148c-0.161133-0.055664-0.307617-0.142578-0.433594-0.259766
	c-0.140625-0.128906-0.25293-0.291992-0.326172-0.470703c-0.089844-0.226563-0.131836-0.463379-0.124023-0.705566
	c0.003906-0.206543,0.033203-0.411621,0.084961-0.61084c-0.016602,0.015137-0.033203,0.030273-0.048828,0.04541
	c-0.357422,0.333496-0.745117,0.663574-1.151367,0.97998c-0.408203,0.318359-0.823242,0.625-1.244141,0.919922
	c-0.244141,0.386719-0.526367,0.800781-0.819336,1.214844c-0.294922,0.415039-0.588867,0.810547-0.883789,1.189453
	c-0.294922,0.379883-0.587891,0.731445-0.879883,1.055664c-0.264648,0.298828-0.549805,0.583984-0.847656,0.848633
	c-0.245117,0.21875-0.509766,0.411133-0.785156,0.568359c-0.214844,0.130859-0.462891,0.206055-0.714844,0.214844h-0.001953
	H43.903553z M45.027576,12.351523c-0.363281,0.232422-0.681641,0.445313-0.953125,0.635742
	c-0.224609,0.15332-0.435547,0.322266-0.631836,0.507813c-0.175781,0.171875-0.202148,0.272461-0.202148,0.317383
	c0,0.047852,0.009766,0.095703,0.02832,0.139648c0.014648,0.029297,0.040039,0.058594,0.069336,0.080078
	c0.033203,0.019531,0.080078,0.03125,0.12793,0.03125c0.073242,0,0.185547-0.026367,0.40332-0.199219
	C44.0891,13.685508,44.299061,13.494102,44.49828,13.29c0.237305-0.242188,0.490234-0.521484,0.757813-0.839844
	c0.141602-0.168945,0.286133-0.341797,0.431641-0.518555L45.027576,12.351523z M54.915272,5.315879
	c-0.301758,0.007324-0.592773,0.112793-0.825195,0.297363c-0.293945,0.220703-0.551758,0.480957-0.767578,0.775879
	c-0.234375,0.314941-0.436523,0.656738-0.600586,1.015625c-0.15332,0.325684-0.273438,0.666504-0.357422,1.015137
	c-0.066406,0.24707-0.078125,0.506836-0.03418,0.753906c0.037109,0.164063,0.118164,0.236328,0.269531,0.236328
	c0.152344-0.007813,0.307617-0.067383,0.431641-0.166992c0.191406-0.142578,0.364258-0.301758,0.516602-0.473633
	c0.189453-0.208008,0.364258-0.425293,0.52832-0.651855c0.160156-0.220215,0.31543-0.436523,0.462891-0.648926
	c-0.030273-0.035645-0.058594-0.072754-0.084961-0.110352c-0.026367-0.029297-0.052734-0.072754-0.071289-0.121582
	c0.045898-0.148926,0.091797-0.206543,0.146484-0.256836c0.087891-0.097168,0.175781-0.206543,0.255859-0.320801
	c0.102539-0.144043,0.191406-0.296875,0.265625-0.456543c0.077148-0.161621,0.117188-0.34082,0.116211-0.518555
	c0.004883-0.103027-0.019531-0.200195-0.071289-0.286133c-0.03418-0.049805-0.097656-0.08252-0.165039-0.08252V5.215293
	L54.915272,5.315879z M22.962637,11.585898c-0.150391-0.00293-0.296387-0.035156-0.431152-0.09375
	c-0.159668-0.069336-0.304199-0.175781-0.417969-0.30957c-0.136719-0.162109-0.239746-0.345703-0.306152-0.545898
	c-0.084961-0.260742-0.124023-0.532227-0.117676-0.805664c-0.006348-0.566406,0.144531-1.126465,0.436523-1.616699
	c0.303223-0.498535,0.683594-0.94043,1.131348-1.313965c0.488281-0.410645,1.02002-0.772949,1.579102-1.076172
	c0.543457-0.297852,1.102051-0.57959,1.663086-0.838867C26.341543,4.810019,26.1975,4.622519,26.071524,4.42623
	c-0.131836-0.194336-0.206055-0.423828-0.213867-0.662109c0.005859-0.237305,0.063965-0.469238,0.167969-0.67627
	c0.119629-0.245117,0.274414-0.473633,0.459473-0.678223c0.211426-0.234375,0.446289-0.447266,0.697266-0.633301
	c0.276367-0.205566,0.575684-0.382813,0.889648-0.526855c0.330078-0.151855,0.675781-0.272949,1.027832-0.36084
	c0.36377-0.091309,0.738281-0.137695,1.112793-0.137695c0.566895,0,0.958984,0.09668,1.210449,0.29541
	c0.258301,0.208496,0.401367,0.530273,0.383789,0.86084c-0.000977,0.344727-0.125977,0.683105-0.351563,0.94873
	c-0.257324,0.305176-0.561523,0.567871-0.903809,0.779297c-0.407227,0.257813-0.837402,0.491211-1.277832,0.692871
	c-0.436035,0.203125-0.88623,0.408691-1.350098,0.616699c0.206055,0.21875,0.425781,0.442871,0.658691,0.671875
	c0.268066,0.26416,0.521973,0.542969,0.760254,0.834961c0.224609,0.272461,0.422363,0.569824,0.587402,0.881836
	c0.155762,0.289063,0.239746,0.615723,0.242188,0.944336c0.002441,0.336426-0.060547,0.663574-0.187988,0.973145
	c-0.123535,0.296875-0.29248,0.571289-0.501953,0.817383c-0.217285,0.25293-0.466309,0.472656-0.741211,0.652344
	c-0.280273,0.185547-0.584961,0.344727-0.903809,0.47168c-0.321777,0.12793-0.654297,0.226563-0.98877,0.291992
	c-0.330566,0.067383-0.668457,0.100586-1.004395,0.100586c-0.248047-0.000977-0.489746-0.044922-0.71875-0.130859
	c-0.239258-0.088867-0.458496-0.216797-0.650879-0.381836c-0.20166-0.173828-0.362793-0.381836-0.479004-0.620117
	c-0.126953-0.261719-0.190918-0.553711-0.186035-0.845703c0.003418-0.325195,0.088379-0.647461,0.246582-0.931641
	c0.158203-0.295898,0.360352-0.566895,0.600586-0.803711c0.233887-0.23291,0.502441-0.426758,0.797852-0.575195
	c0.256836-0.136719,0.548828-0.213867,0.842285-0.22168h0.000488c0.137207,0,0.272461,0.009277,0.40625,0.027832
	c0.125977,0.016602,0.25,0.048828,0.368652,0.096191c0.106934,0.041504,0.205078,0.10791,0.283203,0.190918
	c0.081055,0.087402,0.124023,0.199707,0.121582,0.317383c-0.000977,0.069336-0.007324,0.13916-0.019531,0.208008
	c-0.025391,0.161133-0.101563,0.195313-0.161133,0.195313s-0.114746-0.009766-0.167969-0.02832l-0.135742-0.046387
	c-0.091797-0.029297-0.16748-0.046387-0.244141-0.056641c-0.111816-0.01416-0.224609-0.021973-0.337891-0.021973
	c-0.260254,0.001465-0.478516,0.041504-0.687012,0.120117c-0.214355,0.078125-0.416016,0.185059-0.600586,0.319336
	c-0.169922,0.121094-0.315918,0.27002-0.43457,0.442871c-0.099609,0.138672-0.15332,0.299805-0.157227,0.466797
	c-0.001465,0.148438,0.041016,0.293945,0.123047,0.418945c0.087402,0.134766,0.19873,0.25,0.331543,0.339844
	c0.144531,0.099609,0.302246,0.172852,0.469238,0.219727c0.17334,0.051758,0.351074,0.078125,0.529785,0.078125
	c0.210449-0.000977,0.421387-0.014648,0.630859-0.040039c0.239746-0.027344,0.477051-0.069336,0.711426-0.124023
	c0.241699-0.055664,0.479004-0.130859,0.708496-0.224609c0.215332-0.084961,0.419434-0.196289,0.60791-0.333008
	c0.16748-0.12207,0.306641-0.272461,0.413086-0.447266c0.103027-0.171875,0.155762-0.369141,0.151855-0.570313
	c-0.000977-0.304688-0.077637-0.606934-0.221191-0.875488c-0.160645-0.30127-0.354492-0.583496-0.576172-0.840332
	c-0.239746-0.277832-0.495117-0.54248-0.765137-0.791016C27.385,5.874961,27.138906,5.639121,26.906485,5.408164
	c-0.508301,0.23584-1,0.483887-1.475586,0.744629c-0.466309,0.252441-0.90625,0.555176-1.307617,0.899414
	c-0.362305,0.30957-0.667969,0.674316-0.908203,1.084473c-0.227051,0.396973-0.34375,0.850586-0.336914,1.30957
	c-0.005859,0.250977,0.023438,0.498047,0.086426,0.738281c0.046875,0.166992,0.108887,0.332031,0.186523,0.489258
	c0.053711,0.109375,0.115723,0.214844,0.185059,0.31543c0.062012,0.075195,0.101563,0.178711,0.107422,0.28418
	c-0.009277,0.114258-0.071777,0.201172-0.163086,0.241211c-0.08252,0.045898-0.186523,0.072266-0.291992,0.072266
	L22.962637,11.585898z M30.226797,1.804648c-0.205078,0.00293-0.411133,0.027344-0.61377,0.07373
	c-0.490234,0.106934-0.96582,0.273438-1.414551,0.495117c-0.215332,0.104004-0.420898,0.226563-0.614746,0.364258
	c-0.159668,0.11084-0.300781,0.243652-0.42041,0.394043c-0.088379,0.104004-0.138672,0.231934-0.144043,0.36377
	c0.003906,0.171387,0.054688,0.345215,0.146973,0.49707c0.108398,0.185547,0.230469,0.361328,0.365723,0.527344
	c0.477539-0.205078,0.931641-0.40332,1.362793-0.594238c0.449219-0.199219,0.844727-0.394531,1.186523-0.584473
	c0.292969-0.155762,0.5625-0.346191,0.803223-0.565918c0.180664-0.172363,0.272949-0.351563,0.272949-0.532227
	c-0.000488-0.04834-0.008301-0.097656-0.022949-0.145996c-0.016113-0.048828-0.047363-0.092285-0.089355-0.124023
	c-0.080566-0.056641-0.171875-0.09668-0.270508-0.116699c-0.161133-0.035156-0.325195-0.052734-0.489258-0.052734V1.703574
	L30.226797,1.804648z M18.304922,10.06832c-0.064941,0-0.129883-0.004883-0.194336-0.014648
	c-0.163086-0.022461-0.315918-0.079102-0.452637-0.167969c-0.15625-0.099609-0.246094-0.276367-0.233887-0.462891
	c-0.005371-0.117188,0.025391-0.243164,0.089355-0.353516c0.057129-0.092773,0.12793-0.167969,0.212402-0.228516
	c0.074219-0.054688,0.158691-0.096191,0.25-0.123047c0.072266-0.021484,0.145996-0.033203,0.21875-0.035156
	c0.000977,0,0.001953,0,0.00293,0c0.135254,0,0.246094,0.038086,0.334961,0.106445
	c0.088379,0.075195,0.153809,0.167969,0.193359,0.271484c0.044922,0.115234,0.072754,0.237305,0.083008,0.361328
	c0.011719,0.125977,0.018555,0.261719,0.018555,0.402344c0,0.108398-0.090332,0.181641-0.268555,0.21875
	C18.474844,10.060508,18.389883,10.06832,18.304922,10.06832z M16.770254,3.942832c-0.06543,0-0.130859-0.005371-0.196289-0.015625
	c-0.158691-0.021484-0.315918-0.07959-0.45166-0.16748c-0.15625-0.099609-0.246094-0.277344-0.234375-0.462891
	c-0.004395-0.115723,0.026855-0.238281,0.090332-0.345215c0.055664-0.091309,0.126465-0.167969,0.211914-0.228516
	c0.075195-0.054688,0.159668-0.096191,0.25-0.122559c0.069336-0.020996,0.143066-0.032715,0.218262-0.035156
	c0.000977,0,0.001953,0,0.00293,0c0.134766,0,0.245605,0.038086,0.334473,0.105957
	c0.087891,0.074219,0.15332,0.165527,0.193848,0.26709c0.04541,0.114746,0.07373,0.234863,0.083008,0.356934
	c0.012207,0.126953,0.018555,0.264648,0.018555,0.412109c0,0.151855-0.194336,0.193848-0.26709,0.209961
	c-0.084961,0.016602-0.169434,0.025391-0.253418,0.025391C16.770254,3.942832,16.770254,3.942832,16.770254,3.942832z
	 M46.590076,3.806113c-0.073242,0-0.146484-0.007813-0.21875-0.023438c-0.145508-0.032227-0.279297-0.10498-0.385742-0.210938
	c-0.129883-0.144531-0.192383-0.33252-0.176758-0.519531c-0.004883-0.123535,0.019531-0.26123,0.069336-0.387207
	c0.042969-0.104492,0.109375-0.198242,0.192383-0.271973c0.080078-0.069824,0.176758-0.120605,0.279297-0.147461
	c0.09668-0.026367,0.199219-0.039551,0.303711-0.039551c0.001953,0,0.003906,0,0.005859,0
	c0.204102,0,0.362305,0.076172,0.470703,0.20752c0.100586,0.131348,0.163086,0.284668,0.18457,0.445801
	c0.021484,0.157227,0.013672,0.316406-0.025391,0.472168c-0.022461,0.131836-0.095703,0.256836-0.204102,0.345215
	c-0.102539,0.063477-0.202148,0.098145-0.306641,0.111816C46.720936,3.800254,46.655506,3.806113,46.590076,3.806113z"/>
</svg>
