<?xml version="1.0" encoding="utf-8"?>
<!-- Generator: Adobe Illustrator 23.0.0, SVG Export Plug-In . SVG Version: 6.00 Build 0)  -->
<svg version="1.1" xmlns="http://www.w3.org/2000/svg" xmlns:xlink="http://www.w3.org/1999/xlink" x="0px" y="0px"
	 width="176.232681px" height="51.623878px" viewBox="0 0 176.232681 51.623878" enable-background="new 0 0 176.232681 51.623878"
	 xml:space="preserve">
<g id="Layer_1">
	<g>
		<path d="M11.025562,5.071943c1.113097,1.388808,1.241374,3.130528,1.613815,4.760692
			c0.244355,1.069532,0.702647,1.363492,1.766538,1.359804c10.976602-0.038047,21.953388-0.024355,32.930119-0.023037
			c2.474327,0.000297,2.866322,0.615461,2.230083,3.035066c-1.388729,5.281326-2.705132,10.581711-4.04266,15.876438
			c-0.493122,1.95208-0.670265,2.104752-2.731266,2.105301c-7.669937,0.002037-15.339954,0.017899-23.00972-0.018177
			c-1.150942-0.005417-1.557169,0.190559-1.187935,1.461262c0.876944,3.017975,0.819189,3.034798,4.026354,3.034752
			c6.33803-0.000099,12.676062-0.004417,19.014086,0c0.457634,0.000317,0.924404-0.001591,1.370682,0.082394
			c0.652737,0.122829,1.044361,0.564522,1.126297,1.225864c0.08905,0.718796-0.221828,1.238018-0.870365,1.564854
			c-0.520786,0.262451-1.077663,0.189766-1.624092,0.190048c-7.486225,0.00383-14.97245,0.003815-22.458675,0.001659
			c-1.947832-0.000561-2.235746-0.23967-2.716921-2.16367c-2.349333-9.393953-4.713117-18.784334-7.032762-28.185608
			C9.214202,8.50847,8.877965,8.135067,7.9544,8.191243C6.764683,8.263608,5.56524,8.166227,4.373724,8.221926
			C3.384467,8.26817,2.47397,8.125733,1.652405,7.553073c0-0.827043-0.322749-1.976835,0.090773-2.390357
			C2.1567,4.749195,3.306491,5.071943,4.133535,5.071943C6.430877,5.071943,8.72822,5.071943,11.025562,5.071943z
			 M42.278351,20.165297c3.105282-0.070223,2.407356,0.510872,3.233719-2.586428
			c0.09425-0.353254,0.185242-0.707527,0.269276-1.06333c0.544613-2.305947,0.54385-2.306127-1.887177-2.306081
			c-3.477535,0.000066-3.477539,0.000064-3.873798,3.467448C39.736008,20.165102,39.736015,20.165102,42.278351,20.165297z
			 M16.681229,14.209573c-0.596392,0-1.195045,0.032897-1.78863-0.007909c-0.836362-0.057495-1.192972,0.13864-0.863669,1.072151
			c0.319036,0.904408,0.484977,1.86227,0.728742,2.793884c0.651931,2.491518,0.144228,2.06702,2.641192,2.090536
			c3.095592,0.029156,3.095806,0.006693,2.668591-3.000662C19.648657,14.2095,19.648657,14.2095,16.681229,14.209573z
			 M28.544348,17.229528c0-0.733471-0.018892-1.467583,0.006004-2.200207c0.01977-0.581767-0.215557-0.82969-0.804264-0.8217
			c-1.37499,0.018657-2.750481,0.014689-4.125608,0.002177c-0.592234-0.005388-0.829828,0.238709-0.747484,0.837811
			c0.137236,0.998472,0.212683,2.006039,0.368904,3.001181c0.382038,2.433578-0.034616,2.098192,2.351595,2.112299
			C28.547348,20.178551,28.547428,20.165121,28.544348,17.229528z M31.620874,17.108147
			c0,0.366144-0.003298,0.732325,0.000544,1.098429c0.022991,2.191492-0.25581,1.947227,2.002781,1.955921
			c3.080917,0.01186,3.080952,0.003405,3.379723-3.071541c0.279976-2.881499,0.279976-2.881499-2.535454-2.881482
			C31.620924,14.20949,31.620924,14.20949,31.620874,17.108147z M18.51557,23.221109
			c-0.367565,0-0.738583,0.032471-1.102047-0.006136c-1.057941-0.112368-1.422125,0.212284-1.058044,1.317701
			c0.386486,1.173447,0.604036,2.40192,0.913929,3.601566c0.099293,0.384382,0.113949,0.928236,0.635551,0.949919
			c1.138319,0.047314,2.427309,0.400343,3.370106-0.162174c0.657249-0.392145-0.078642-1.512512-0.053591-2.315706
			c0.011347-0.363741-0.062943-0.731445-0.111767-1.095558C20.802603,23.22064,20.801357,23.220806,18.51557,23.221109z
			 M41.828995,23.22296c-0.548267,0-1.097973,0.024944-1.644436-0.006519c-0.636684-0.036657-0.908596,0.272276-0.976826,0.866613
			c-0.161499,1.406708-0.329414,2.81282-0.513103,4.216768c-0.064507,0.493061,0.055462,0.734207,0.604557,0.829718
			c2.637375,0.458759,3.274551,0.070917,3.953014-2.512865c0.10442-0.397635,0.199829-0.797621,0.301464-1.195995
			C44.114944,23.220741,44.115166,23.220798,41.828995,23.22296z M28.54747,26.236706
			c0.000013-3.022673,0.000013-3.022682-2.982378-3.015785c-0.22827,0.000528-0.458546,0.021221-0.68445-0.00157
			c-0.847824-0.085531-0.995722,0.328421-0.868202,1.07336c0.200029,1.168537,0.427,2.346888,0.457396,3.525858
			c0.028778,1.116407,0.508568,1.344873,1.517591,1.328447c2.559147-0.041664,2.559841,0.00078,2.560038-2.49942
			C28.547476,26.510633,28.547464,26.373669,28.54747,26.236706z M31.620897,26.067476
			c0.000002,3.258003-0.001047,3.239555,2.949839,3.071623c0.663639-0.037766,0.995014-0.225626,1.052559-0.932304
			c0.088917-1.091856,0.270226-2.175943,0.400944-3.264698c0.206226-1.717604,0.202221-1.718082-1.514397-1.721237
			C31.620895,23.215553,31.620895,23.215549,31.620897,26.067476z"/>
		<path d="M39.255005,47.22501c-1.63525-0.01329-3.004768-1.444355-2.976837-3.110607
			c0.027428-1.636169,1.347149-2.945148,2.983978-2.959682c1.666782-0.014805,3.096363,1.392517,3.083458,3.035454
			C42.332985,45.796494,40.864895,47.238098,39.255005,47.22501z"/>
		<path d="M20.783987,47.225231c-1.626532-0.02198-2.995544-1.478394-2.951956-3.140408
			c0.042767-1.63076,1.384598-2.933971,3.016859-2.930019c1.664286,0.004028,3.074329,1.421951,3.047148,3.064178
			C23.869434,45.826298,22.398678,47.247055,20.783987,47.225231z"/>
	</g>
	<g>
		<g enable-background="new    ">
			<path fill="#C8A026" d="M66.423752,42.948021c0.55191,0,1.097351-0.099972,1.635605-0.299423
				c0.538254-0.199696,1.017624-0.530087,1.438843-0.990925c0.420845-0.461567,0.762451-1.063583,1.024811-1.806774
				c0.261993-0.743435,0.393295-1.651943,0.393295-2.725765c0-1.156239-0.286621-2.278099-0.859131-3.365578
				c-0.572876-1.087479-1.29071-2.15789-2.153137-3.210989c-0.862663-1.053099-1.794334-2.099127-2.794891-3.138571
				c-1.000793-1.0392-1.932468-2.099127-2.794891-3.180021c-0.862671-1.080408-1.580502-2.195438-2.153137-3.345095
				c-0.572876-1.149168-0.859131-2.350271-0.859131-3.603065c0-1.252552,0.230907-2.384894,0.693573-3.396787
				c0.462177-1.011647,1.09016-1.871877,1.883945-2.580933c0.793545-0.709056,1.718388-1.256208,2.774166-1.641703
				c1.055908-0.385251,2.184227-0.578241,3.384964-0.578241c1.283638,0,2.425491,0.134228,3.426285,0.402684
				c1.000557,0.268456,1.849449,0.633347,2.546555,1.094427c0.696747,0.461326,1.224632,1.004943,1.583672,1.63134
				c0.358795,0.626398,0.538376,1.290589,0.538376,1.992574c0,0.330389-0.048523,0.671019-0.144958,1.022132
				c-0.096672,0.350871-0.248459,0.671019-0.455467,0.960199c-0.207016,0.288939-0.469376,0.530087-0.78672,0.722712
				c-0.317703,0.192869-0.690277,0.288937-1.117958,0.288937c-0.510818,0-0.886925-0.154831-1.128319-0.464495
				c-0.241631-0.309662-0.421211-0.691744-0.538254-1.145997c-0.117401-0.454254-0.217369-0.953129-0.300148-1.497112
				c-0.082909-0.543739-0.214211-1.042858-0.393425-1.497112c-0.179459-0.454254-0.448647-0.83609-0.807434-1.145997
				c-0.359039-0.309664-0.8834-0.464617-1.573433-0.464617c-0.372574,0-0.741974,0.082658-1.107597,0.247852
				c-0.365868,0.165316-0.697105,0.41646-0.993729,0.753676c-0.296982,0.33746-0.53508,0.767574-0.714172,1.290588
				c-0.179581,0.523257-0.269188,1.142828-0.269188,1.858467c0,0.82585,0.172386,1.631217,0.517525,2.41586
				c0.344902,0.784643,0.800369,1.559046,1.366425,2.322962c0.565804,0.763918,1.211098,1.528078,1.93576,2.291996
				c0.724541,0.763918,1.46273,1.535149,2.215187,2.312721c0.75209,0.777815,1.490654,1.576357,2.215187,2.395136
				c0.724663,0.819265,1.369713,1.669254,1.93576,2.550211c0.565811,0.880955,1.021286,1.803604,1.366425,2.766973
				c0.344772,0.963615,0.517525,1.975506,0.517525,3.035187c0,1.555878-0.300156,2.942291-0.900581,4.160706
				c-0.600311,1.218414-1.41494,2.243717-2.442924,3.076637c-1.028351,0.832676-2.232628,1.469315-3.612701,1.91016
				c-1.380318,0.440353-2.850243,0.660778-4.409653,0.660778c-1.407867,0-2.653591-0.17556-3.736927-0.526672
				c-1.083698-0.351116-1.997814-0.815609-2.74308-1.39373c-0.745384-0.578117-1.307899-1.235725-1.687298-1.972092
				c-0.379765-0.736362-0.56934-1.496868-0.56934-2.281509c0-0.330387,0.051689-0.684673,0.155197-1.063339
				c0.103504-0.378422,0.255287-0.726124,0.455471-1.042858c0.19994-0.31649,0.451939-0.581291,0.755627-0.794884
				c0.303448-0.213352,0.655415-0.320148,1.055904-0.320148c0.414021,0,0.748554,0.103142,1.004089,0.309662
				c0.255287,0.206524,0.458763,0.482052,0.61079,0.826096c0.151665,0.344288,0.275894,0.736607,0.372574,1.176964
				c0.096432,0.440601,0.19994,0.887783,0.310638,1.342037c0.11021,0.454254,0.248341,0.901436,0.414021,1.342281
				c0.165562,0.440353,0.393299,0.832676,0.683208,1.176964c0.289795,0.3438,0.662487,0.619324,1.117962,0.825848
				C65.160957,42.844879,65.733475,42.948021,66.423752,42.948021z"/>
			<path fill="#C8A026" d="M98.28566,21.762667c0,2.518999-0.245293,4.952415-0.735023,7.299273
				c-0.490097,2.347101-1.166481,4.549854-2.0289,6.607533c-0.862671,2.058163-1.887482,3.937111-3.074326,5.637089
				c-1.187202,1.699978-2.477547,3.15564-3.871521,4.367226c-1.394218,1.211102-2.86731,2.154232-4.420013,2.828911
				c-1.552704,0.674187-3.122971,1.011646-4.70993,1.011646c-1.214394,0-2.153137-0.20311-2.81562-0.609085
				c-0.662483-0.406219-0.993729-0.953373-0.993729-1.64146c0-0.261871,0.041328-0.51643,0.124237-0.76416
				c0.082779-0.24773,0.193352-0.468151,0.331238-0.660778c0.13813-0.192867,0.303688-0.347702,0.496803-0.464493
				c0.193481-0.117039,0.40049-0.17556,0.621155-0.17556c0.26236,0,0.479736,0.130695,0.652122,0.392323
				c0.172752,0.261387,0.355499,0.547153,0.548615,0.856815c0.193481,0.309906,0.427925,0.595432,0.703934,0.857059
				c0.275894,0.261387,0.655296,0.392323,1.138687,0.392323c0.621033,0,1.269615-0.106796,1.945999-0.320148
				c0.67614-0.213593,1.356056-0.5196,2.039268-0.918747c0.683205-0.399395,1.366417-0.884613,2.049629-1.455662
				c0.683205-0.571537,1.356056-1.208176,2.018539-1.91016c-0.386589-1.390556-0.831703-2.90815-1.335335-4.553024
				c-0.50399-1.644627-1.035172-3.300228-1.594154-4.965828c-0.558975-1.665598-1.131851-3.272921-1.718384-4.82148
				c-0.586777-1.548803-1.159286-2.921806-1.718269-4.119497c-0.559097-1.197689-1.097351-2.157888-1.614876-2.880598
				c-0.517532-0.722712-0.976662-1.084066-1.376785-1.084066c-0.261993,0-0.465836,0.041451-0.610672,0.123865
				c-0.144958,0.082659-0.313805,0.199697-0.507286,0.351114l-0.414024-0.516186
				c0.27626-0.233833,0.566055-0.474979,0.869499-0.72271c0.30381-0.247732,0.662483-0.474979,1.07663-0.681503
				c0.414017-0.206524,0.896927-0.374765,1.449196-0.505703c0.551788-0.130692,1.214272-0.196281,1.987457-0.196281
				c0.841698,0,1.625122,0.189455,2.349777,0.567879c0.724541,0.378666,1.383492,1.077236,1.977097,2.095713
				c0.427673,0.757334,0.87278,1.665842,1.335327,2.725767c0.462303,1.060169,0.928139,2.243961,1.397507,3.551619
				c0.469009,1.307899,0.941917,2.722353,1.418114,4.243361c0.476196,1.521009,0.955566,3.114676,1.438835,4.780031
				c0.855598-1.789219,1.545631-3.685726,2.070358-5.688782c0.524353-2.002815,0.786713-4.064148,0.786713-6.184244
				c0-0.756845-0.048523-1.403969-0.144958-1.940882c-0.09668-0.536911-0.207008-0.994335-0.331238-1.373245
				c-0.124237-0.378424-0.23481-0.701984-0.331245-0.970442c-0.09668-0.268456-0.144958-0.505945-0.144958-0.712469
				c0-0.20628,0.082901-0.381836,0.248466-0.526426c0.16568-0.144592,0.365501-0.258217,0.600426-0.34063
				c0.234444-0.082659,0.472542-0.141178,0.71418-0.175558c0.241386-0.03438,0.445107-0.051691,0.610794-0.051691
				c0.372688,0,0.658943,0.07583,0.859131,0.227249c0.199936,0.151417,0.348427,0.368425,0.445107,0.650291
				c0.096436,0.282354,0.151787,0.622984,0.165688,1.022133C98.278465,20.819778,98.28566,21.26696,98.28566,21.762667z"/>
			<path fill="#C8A026" d="M107.746849,20.213861c-0.469376,0-0.904121,0.055105-1.304245,0.165318
				c-0.40049,0.11021-0.745384,0.24773-1.035179,0.412802c-0.289787,0.165318-0.517525,0.347944-0.683205,0.547398
				c-0.165565,0.199696-0.248466,0.388908-0.248466,0.567635c0,0.206524,0.106796,0.354771,0.320885,0.444014
				c0.213837,0.089729,0.451935,0.192869,0.714294,0.309662c0.261993,0.117283,0.500092,0.282354,0.714294,0.495707
				c0.213844,0.213594,0.320885,0.540325,0.320885,0.98068c0,0.289183-0.058884,0.554468-0.176048,0.795128
				c-0.117401,0.240904-0.27626,0.454254-0.476074,0.640051c-0.20031,0.185799-0.434746,0.330389-0.703934,0.433529
				c-0.269188,0.103384-0.548622,0.155075-0.838531,0.155075c-0.773064,0-1.397385-0.261385-1.873581-0.784641
				c-0.476204-0.523014-0.71418-1.218416-0.71418-2.085716c0-0.839504,0.220543-1.558802,0.662483-2.157646
				c0.441452-0.598845,1.017624-1.090893,1.72863-1.476387c0.710762-0.38525,1.514542-0.671261,2.411957-0.857059
				c0.896927-0.185799,1.793976-0.278696,2.691391-0.278696c1.076508,0,2.104492,0.117037,3.084686,0.351114
				c0.979828,0.234076,1.845665,0.605915,2.598122,1.11503c0.752213,0.509359,1.352524,1.156239,1.801163,1.940882
				c0.448402,0.784643,0.672974,1.734602,0.672974,2.849634v11.666502c0,0.123863,0.006584,0.261627,0.020721,0.4128
				c0.013412,0.151665,0.048035,0.289185,0.103386,0.413048c0.055107,0.123867,0.137764,0.227249,0.248459,0.309662
				c0.110214,0.082661,0.269188,0.124111,0.476204,0.124111c0.248459,0,0.47937-0.093143,0.693451-0.278942
				c0.213837-0.185799,0.403778-0.374763,0.569336-0.567879l0.517654,0.433773
				c-0.207016,0.288937-0.455475,0.605915-0.745384,0.949715c-0.289917,0.344288-0.641762,0.66785-1.055786,0.970444
				c-0.414017,0.303078-0.897293,0.557636-1.449318,0.76416c-0.552032,0.206524-1.179893,0.309662-1.883827,0.309662
				c-0.869492,0-1.642677-0.258213-2.318695-0.774403c-0.676384-0.516186-1.117958-1.311069-1.324966-2.384892
				c-0.44194,0.592014-0.900581,1.087719-1.376785,1.486626c-0.476196,0.399635-0.962639,0.72271-1.459564,0.970684
				c-0.496918,0.24773-0.997261,0.426456-1.501007,0.536667c-0.503998,0.110214-1.011162,0.165318-1.521622,0.165318
				c-0.662483,0-1.304237-0.103138-1.9254-0.309662c-0.621033-0.206524-1.176842-0.533501-1.666573-0.980927
				c-0.490097-0.447182-0.883392-1.028717-1.180008-1.744843c-0.296982-0.715393-0.445114-1.589767-0.445114-2.622383
				c0-1.252308,0.248344-2.278099,0.74527-3.076639c0.496796-0.798054,1.14904-1.469072,1.95636-2.013054
				c0.807442-0.543741,1.72522-1.008236,2.753563-1.393972c1.027985-0.38525,2.080597-0.791227,3.157227-1.218172
				c0.800247-0.31649,1.383492-0.787813,1.749352-1.414454c0.365501-0.626154,0.548622-1.269863,0.548622-1.930641
				c0-1.018475-0.300156-1.834328-0.900589-2.446827C109.599831,20.520355,108.782028,20.213861,107.746849,20.213861z
				 M111.038666,29.257978c0-0.3438-0.110703-0.605427-0.331245-0.784643c-0.221031-0.178726-0.50399-0.268456-0.848892-0.268456
				c-0.483269,0-0.94191,0.110455-1.376656,0.330389c-0.434868,0.220421-0.817802,0.543983-1.149048,0.970684
				c-0.331238,0.426702-0.593605,0.953373-0.786713,1.579527c-0.193481,0.62664-0.289917,1.35252-0.289917,2.178371
				c0,0.798542,0.05864,1.459316,0.176048,1.98233c0.117035,0.523258,0.275894,0.939476,0.476196,1.249138
				c0.199821,0.30991,0.431091,0.526672,0.693451,0.650539c0.262115,0.123863,0.538376,0.185795,0.828163,0.185795
				c0.358795,0,0.696747-0.092899,1.014458-0.278694c0.317345-0.185799,0.593231-0.42329,0.828163-0.712471
				c0.234444-0.288937,0.420853-0.612255,0.558983-0.97044c0.137764-0.357697,0.207008-0.715641,0.207008-1.073582V29.257978z"/>
			<path fill="#C8A026" d="M140.933731,36.361214c0,0.123867,0.006821,0.258217,0.020721,0.402561
				c0.013657,0.144592,0.048035,0.282356,0.103378,0.413048c0.055115,0.130936,0.138016,0.237492,0.248459,0.320148
				c0.110458,0.082413,0.269196,0.123867,0.476212,0.123867c0.262115,0,0.496918-0.092899,0.703934-0.278698
				c0.207001-0.186043,0.400116-0.375011,0.579575-0.567879l0.496933,0.433529
				c-0.207016,0.289181-0.465729,0.609085-0.776367,0.959957c-0.310394,0.351112-0.686615,0.685158-1.128189,1.001648
				c-0.442062,0.316734-0.945572,0.581779-1.511505,0.794884c-0.565918,0.213352-1.207687,0.320148-1.925278,0.320148
				c-0.60762,0-1.135513-0.079487-1.583664-0.237488c-0.448883-0.158005-0.828293-0.371597-1.138687-0.640053
				c-0.310638-0.268456-0.542023-0.584946-0.693695-0.949959c-0.151901-0.364525-0.227737-0.753433-0.227737-1.166481v-0.929234
				c-0.690277,0.743435-1.414932,1.397388-2.173737,1.961609c-0.33136,0.24773-0.683212,0.488876-1.055771,0.72271
				c-0.372818,0.234074-0.759293,0.444012-1.159409,0.62981c-0.40062,0.185799-0.814636,0.333557-1.24231,0.443768
				c-0.427933,0.110214-0.85585,0.165318-1.283524,0.165318c-0.828049,0-1.535637-0.148003-2.122047-0.444012
				c-0.586655-0.295765-1.059441-0.684673-1.418114-1.166481c-0.359161-0.481808-0.621033-1.025303-0.786835-1.631218
				c-0.165558-0.605671-0.248215-1.211342-0.248215-1.817261V22.443924c0-0.123865-0.007317-0.257971-0.020729-0.402561
				c-0.013901-0.14459-0.048523-0.28211-0.10363-0.413048c-0.055344-0.130692-0.138008-0.23749-0.248459-0.319902
				c-0.110458-0.082659-0.269188-0.124109-0.476196-0.124109c-0.248466,0-0.479614,0.093142-0.693451,0.27894
				c-0.214088,0.185799-0.403786,0.375254-0.569344,0.567879l-0.517647-0.433773
				c0.207008-0.288937,0.465958-0.609085,0.776352-0.960199c0.310638-0.35087,0.686623-0.684673,1.128441-1.001408
				c0.441574-0.31649,0.948738-0.581289,1.521736-0.794884c0.57251-0.21335,1.211098-0.320147,1.914795-0.320147
				c0.607376,0,1.13868,0.079487,1.594154,0.23749c0.455475,0.158489,0.835121,0.371595,1.13868,0.640051
				c0.303574,0.268457,0.531311,0.585192,0.683212,0.949959c0.151657,0.364769,0.227737,0.753677,0.227737,1.166481v13.793425
				c0,0.192867,0.031204,0.389149,0.09314,0.588604c0.06218,0.199696,0.151657,0.381836,0.269196,0.547153
				c0.117035,0.16507,0.265518,0.299419,0.445221,0.402561c0.179214,0.103382,0.393295,0.154831,0.641769,0.154831
				c0.400116,0,0.800247-0.103142,1.200607-0.309662c0.400131-0.206524,0.766113-0.45084,1.097229-0.732952
				c0.331375-0.282112,0.61763-0.560806,0.859268-0.836334c0.241379-0.275284,0.417435-0.481808,0.527878-0.619572V22.443924
				c0-0.123865-0.007065-0.257971-0.020721-0.402561c-0.013901-0.14459-0.048523-0.28211-0.103378-0.413048
				c-0.055359-0.130692-0.13826-0.23749-0.248459-0.319902c-0.110703-0.082659-0.269196-0.124109-0.476212-0.124109
				c-0.248459,0-0.479614,0.093142-0.693451,0.27894c-0.214325,0.185799-0.403778,0.375254-0.569336,0.567879l-0.517654-0.433773
				c0.207016-0.288937,0.465714-0.609085,0.776352-0.960199c0.310638-0.35087,0.686386-0.684673,1.128448-1.001408
				c0.44133-0.31649,0.948746-0.581289,1.5215-0.794884c0.57251-0.21335,1.21109-0.320147,1.915024-0.320147
				c0.607147,0,1.138687,0.079487,1.594162,0.23749c0.455475,0.158489,0.834869,0.371595,1.138687,0.640051
				c0.303314,0.268457,0.531052,0.585192,0.683212,0.949959c0.151657,0.364769,0.227737,0.753677,0.227737,1.166481V36.361214z"/>
			<path fill="#C8A026" d="M145.053711,29.381844c0-1.803118,0.261871-3.382643,0.786591-4.738823
				c0.524475-1.35569,1.224747-2.488033,2.101318-3.396786c0.876328-0.908508,1.894318-1.589767,3.053726-2.044022
				c1.159409-0.454252,2.373672-0.681501,3.643784-0.681501c1.269623,0,2.484131,0.209936,3.643539,0.62981
				c1.159409,0.420118,2.177155,1.063339,3.053711,1.930641c0.876328,0.8673,1.576599,1.965263,2.101334,3.293402
				c0.524475,1.328627,0.786835,2.901325,0.786835,4.718342c0,1.803604-0.26236,3.4002-0.786835,4.790516
				c-0.524734,1.390556-1.225006,2.560452-2.101334,3.510166c-0.876556,0.949959-1.894302,1.669254-3.053711,2.157887
				c-1.159409,0.488392-2.373917,0.732952-3.643539,0.732952h-0.124359c0.772934,0.219936,1.618057,0.523014,2.536072,0.908508
				c0.91777,0.38525,1.870163,0.798298,2.857193,1.238895c0.986526,0.440357,1.980133,0.891197,2.981049,1.352524
				c1.000687,0.461079,1.970154,0.877541,2.90889,1.249382c0.938263,0.371593,1.825058,0.674187,2.660172,0.908504
				c0.835129,0.233833,1.583923,0.350872,2.246399,0.350872c0.441589,0,0.81781-0.034378,1.128204-0.103138
				c0.310638-0.069004,0.569336-0.165318,0.776352-0.289185c0.207016-0.123863,0.369156-0.268456,0.486679-0.433529
				c0.11705-0.165314,0.217255-0.351112,0.300156-0.557636l0.621033,0.124111
				c-0.069244,0.784641-0.231384,1.496868-0.486435,2.136917c-0.255539,0.640297-0.600555,1.19062-1.035294,1.651943
				c-0.434753,0.461082-0.955811,0.819023-1.562958,1.073826c-0.60762,0.254559-1.290833,0.38208-2.049622,0.38208
				c-0.897293,0-1.870422-0.179214-2.919128-0.536911c-1.04895-0.358185-2.135941-0.8022-3.260727-1.331795
				c-1.125031-0.530087-2.263718-1.104794-3.416046-1.724361c-1.152588-0.619328-2.27713-1.194279-3.374359-1.724117
				c-1.097229-0.530087-2.146423-0.974098-3.146851-1.331795c-1.000931-0.358189-1.901627-0.536915-2.701874-0.536915
				c-0.814392,0-1.394226,0.351116-1.738998,1.053101l-0.641754-0.206524c0.041443-0.234077,0.144836-0.564465,0.310394-0.991165
				c0.165802-0.426704,0.420853-0.853649,0.766113-1.280106c0.344772-0.426945,0.790009-0.805367,1.335449-1.135757
				c0.544952-0.330387,1.211105-0.523258,1.997696-0.578117c-0.980194-0.24773-1.89772-0.65712-2.753571-1.228657
				c-0.855835-0.571049-1.601227-1.297173-2.235916-2.178371c-0.634933-0.880711-1.135269-1.920399-1.500763-3.117844
				C145.236343,32.231476,145.053711,30.882614,145.053711,29.381844z M157.78598,29.175564
				c0-1.101376-0.038269-2.164717-0.113861-3.190262c-0.07608-1.025303-0.224564-1.937468-0.445236-2.73601
				c-0.220901-0.798296-0.538132-1.435179-0.952148-1.909914c-0.414261-0.474979-0.959473-0.712469-1.635605-0.712469
				c-0.676392,0-1.221588,0.251389-1.635605,0.753675c-0.414032,0.502533-0.731735,1.163311-0.952408,1.982332
				c-0.220901,0.819023-0.365738,1.751915-0.434738,2.797941c-0.06926,1.046272-0.103394,2.119852-0.103394,3.220985
				c0,1.101622,0.034134,2.178616,0.103394,3.231716c0.069,1.053097,0.213837,1.992573,0.434738,2.81842
				c0.220673,0.826096,0.538376,1.490284,0.952408,1.992573c0.414017,0.502777,0.959213,0.753677,1.635605,0.753677
				c0.676132,0,1.221344-0.261143,1.635605-0.784641c0.414017-0.523014,0.731247-1.211102,0.952148-2.064747
				c0.220673-0.853405,0.369156-1.817261,0.445236-2.890842C157.747711,31.364176,157.78598,30.276941,157.78598,29.175564z"/>
			<path fill="#C8A026" d="M174.70018,38.095573c0,0.179214-0.03096,0.395977-0.09314,0.650536
				c-0.06218,0.254803-0.207016,0.495461-0.434753,0.72271c-0.227737,0.227005-0.555679,0.420116-0.983353,0.578121
				c-0.427933,0.158001-1.007751,0.237488-1.739243,0.237488s-1.304245-0.086071-1.718262-0.258213
				c-0.414017-0.171902-0.724655-0.374767-0.931671-0.609089c-0.207016-0.233829-0.334778-0.474979-0.382813-0.72271
				c-0.048523-0.24773-0.072662-0.447182-0.072662-0.598843V22.154987c0-0.399149-0.09314-0.746605-0.279434-1.042858
				c-0.186279-0.295765-0.500336-0.444014-0.94191-0.444014c-0.234802,0-0.434738,0.041451-0.600555,0.123865
				c-0.165558,0.082659-0.345016,0.199697-0.538132,0.351114l-0.434738-0.516186
				c0.317215-0.261385,0.672729-0.519358,1.066269-0.774403c0.393295-0.254557,0.817551-0.478149,1.273026-0.671019
				c0.455475-0.192625,0.945328-0.351114,1.470047-0.474979c0.524231-0.123865,1.076508-0.185797,1.656097-0.185797
				c0.897034,0,1.594147,0.120695,2.09108,0.361355c0.496918,0.240904,0.862411,0.536911,1.097229,0.887781
				c0.234558,0.351114,0.375977,0.726368,0.4245,1.125517c0.048035,0.399393,0.072418,0.750507,0.072418,1.053099V38.095573z
				 M167.70253,13.812855c0-0.38525,0.08606-0.753676,0.258942-1.104791c0.172394-0.35087,0.414017-0.65712,0.724411-0.918749
				c0.310638-0.261385,0.669312-0.467908,1.076752-0.61957c0.406708-0.151297,0.851944-0.227127,1.33522-0.227127
				c0.469116,0,0.907288,0.07583,1.314728,0.227127c0.406952,0.151662,0.762451,0.358185,1.06601,0.61957
				c0.303574,0.261629,0.54155,0.567879,0.714432,0.918749c0.172379,0.351114,0.258698,0.719541,0.258698,1.104791
				c0,0.399392-0.086319,0.770988-0.258698,1.115031c-0.172882,0.344287-0.410858,0.64371-0.714432,0.898268
				c-0.303558,0.254802-0.659058,0.457667-1.06601,0.609086c-0.40744,0.151661-0.845612,0.227005-1.314728,0.227005
				c-0.483276,0-0.928513-0.075344-1.33522-0.227005c-0.40744-0.151419-0.766113-0.354284-1.076752-0.609086
				c-0.310394-0.254558-0.552017-0.553981-0.724411-0.898268C167.788589,14.583843,167.70253,14.212247,167.70253,13.812855z"/>
		</g>
		<g enable-background="new    ">
			<path d="M82.71582,13.807734c-0.445236,0-0.773918-0.092655-0.985802-0.277478
				c-0.212013-0.184822-0.317955-0.480831-0.317955-0.887782V2.574152c-0.169708,0.015849-0.380257,0.046328-0.632004,0.091192
				c-0.251755,0.044986-0.515457,0.109723-0.790863,0.19421c-0.27565,0.084609-0.5513,0.186285-0.826828,0.305274
				c-0.275528,0.118867-0.522034,0.256387-0.739288,0.412194c-0.217255,0.155929-0.39476,0.33173-0.532524,0.527159
				c-0.137886,0.195673-0.206764,0.412315-0.206764,0.650171c0,0.169096,0.022552,0.303933,0.067657,0.404269
				c0.044991,0.100458,0.096558,0.175801,0.154961,0.225908c0.058273,0.050351,0.117889,0.082048,0.178848,0.095093
				c0.060829,0.013288,0.104599,0.019872,0.13118,0.019872c0.132393,0,0.241142-0.022432,0.325874-0.067419
				c0.084732-0.044743,0.161659-0.092411,0.230545-0.14264c0.068878-0.050229,0.133858-0.097775,0.194817-0.142762
				c0.060837-0.044743,0.13118-0.067297,0.21067-0.067297c0.063515,0,0.13118,0.014629,0.202744,0.043523
				c0.071442,0.029138,0.137642,0.075343,0.198715,0.138739c0.060837,0.063396,0.112534,0.146663,0.154961,0.249803
				c0.042419,0.103018,0.063637,0.22859,0.063637,0.376472c0,0.211522-0.041084,0.393784-0.123253,0.547031
				c-0.082176,0.153368-0.188118,0.281501-0.317955,0.384519c-0.129967,0.103018-0.278214,0.179702-0.445236,0.229931
				c-0.166901,0.050229-0.332581,0.075221-0.496803,0.075221c-0.254311,0-0.483635-0.043523-0.687599-0.130814
				c-0.204079-0.087169-0.377563-0.207255-0.520691-0.360624c-0.143005-0.153246-0.251755-0.332949-0.325882-0.539106
				c-0.074242-0.206158-0.111305-0.42536-0.111305-0.657974c0-0.618351,0.170921-1.153434,0.512772-1.605372
				c0.341728-0.451816,0.809387-0.827069,1.402992-1.12576c0.593483-0.298447,1.285103-0.519235,2.074745-0.661875
				c0.789642-0.142762,1.634872-0.214082,2.535828-0.214082c0.429382,0,0.847916,0.003901,1.256081,0.011948
				c0.408051,0.007924,0.780258,0.01975,1.116859,0.035599c0.336487,0.015849,0.626648,0.034502,0.870476,0.055471
				c0.243706,0.021213,0.421333,0.044987,0.532524,0.071442c0.105942,0.026455,0.190796,0.064737,0.254433,0.114844
				c0.063637,0.050351,0.111305,0.107041,0.143127,0.170437c0.0317,0.063518,0.05291,0.130815,0.063522,0.202256
				c0.010605,0.07132,0.015968,0.143981,0.015968,0.217983c0,0.058153-0.008049,0.125572-0.023895,0.202135
				c-0.015846,0.076684-0.039742,0.149345-0.071564,0.217983c-0.031822,0.06876-0.071564,0.126913-0.119232,0.17446
				s-0.106064,0.07132-0.174828,0.07132c-0.042549,0-0.086197-0.018409-0.13118-0.055471
				c-0.045105-0.03694-0.107285-0.081927-0.186897-0.134838c-0.079483-0.052667-0.186768-0.113503-0.321854-0.182262
				c-0.135201-0.068638-0.312836-0.132034-0.532646-0.190309c-0.219933-0.058031-0.490219-0.110942-0.810852-0.158489
				s-0.708809-0.079366-1.164528-0.095215v10.084171c0,0.406951-0.106064,0.70296-0.317955,0.887782
				C83.481567,13.715079,83.155563,13.807734,82.71582,13.807734z"/>
			<path d="M86.245247,9.621917c0-0.692353,0.1007-1.298757,0.302101-1.819455
				c0.201408-0.520453,0.47023-0.955323,0.806831-1.304121c0.336487-0.348798,0.72747-0.610426,1.172577-0.784764
				c0.445114-0.17446,0.911438-0.261629,1.399094-0.261629c0.487541,0,0.953857,0.080585,1.399094,0.241757
				c0.445107,0.161293,0.835846,0.408292,1.172455,0.741241c0.336479,0.332949,0.605423,0.75453,0.806953,1.264499
				c0.201279,0.510091,0.301979,1.113812,0.301979,1.811409c0,0.692474-0.1007,1.305462-0.301979,1.839326
				c-0.20153,0.533743-0.470474,0.98312-0.806953,1.347645c-0.336609,0.364769-0.727348,0.641027-1.172455,0.828532
				c-0.445236,0.187505-0.911552,0.281379-1.399094,0.281379c-0.487656,0-0.953979-0.088511-1.399094-0.265531
				c-0.445107-0.17702-0.83609-0.440111-1.172577-0.788788c-0.336601-0.348919-0.605423-0.784886-0.806831-1.308144
				C86.345947,10.922014,86.245247,10.31427,86.245247,9.621917z M91.134148,9.54255c0-0.422678-0.014633-0.83097-0.04377-1.224754
				c-0.029137-0.393662-0.086189-0.743802-0.170921-1.050417c-0.084732-0.306493-0.20665-0.550932-0.365623-0.733316
				c-0.158974-0.182384-0.368423-0.273455-0.627983-0.273455c-0.259674,0-0.469002,0.096435-0.627983,0.289303
				c-0.158974,0.192991-0.281013,0.446695-0.365746,0.761113c-0.084724,0.314418-0.140442,0.672603-0.166901,1.074191
				c-0.026573,0.401709-0.039742,0.813902-0.039742,1.236702s0.013168,0.836334,0.039742,1.240603
				c0.026459,0.404512,0.082176,0.765137,0.166901,1.082114c0.084732,0.317223,0.206772,0.572268,0.365746,0.765137
				c0.158981,0.192869,0.368309,0.289425,0.627983,0.289425c0.25956,0,0.469009-0.100457,0.627983-0.301373
				c0.158974-0.200671,0.280891-0.464983,0.365623-0.792689s0.141785-0.697596,0.170921-1.110033
				C91.119514,10.382908,91.134148,9.965472,91.134148,9.54255z"/>
			<path d="M97.549294,7.608252c0.185432-0.24834,0.384155-0.500703,0.596169-0.75709
				c0.211884-0.256265,0.439743-0.487537,0.683571-0.693695c0.243706-0.206036,0.508751-0.375132,0.795006-0.507287
				c0.286133-0.132155,0.598724-0.198233,0.938011-0.198233c0.302109,0,0.553734,0.059494,0.755142,0.178361
				c0.201401,0.118867,0.364281,0.261629,0.488876,0.428042c0.124474,0.166535,0.211891,0.339654,0.26236,0.519357
				c0.050354,0.179702,0.075462,0.332949,0.075462,0.45974c0,0.232613-0.030472,0.474492-0.091309,0.725392
				c-0.061081,0.251145-0.164345,0.499485-0.310028,0.745142c-0.145813,0.24578-0.34063,0.483636-0.584343,0.713567
				c-0.243828,0.229931-0.55117,0.43999-0.922035,0.630177c0.498016,1.05188,0.982872,1.957096,1.454681,2.715405
				c0.471565,0.758309,0.926064,1.382025,1.363251,1.870902c0.437309,0.488634,0.857185,0.849502,1.259987,1.082114
				c0.402687,0.232369,0.786964,0.348677,1.152702,0.348677c0.063522,0,0.127159-0.007803,0.190796-0.023652
				c0.063522-0.015849,0.121796-0.03438,0.174828-0.055593c0.058273-0.021214,0.119232-0.047547,0.182877-0.079245
				l0.151047,0.277477c-0.143127,0.079245-0.288933,0.154589-0.437309,0.22603
				c-0.148369,0.071198-0.317947,0.133375-0.508743,0.186285c-0.190674,0.052668-0.410736,0.095095-0.659805,0.126791
				c-0.249069,0.031698-0.545815,0.047546-0.890221,0.047546c-0.312836,0-0.621399-0.037062-0.926186-0.110941
				c-0.304787-0.074125-0.610794-0.20628-0.918137-0.396467c-0.30735-0.190187-0.618721-0.444013-0.93399-0.760991
				c-0.315392-0.317222-0.63871-0.718809-0.969833-1.205005c-0.331238-0.486196-0.671745-1.064802-1.021523-1.736065
				c-0.34977-0.671262-0.712837-1.456148-1.089066-2.354659c0.508751-0.375254,0.908875-0.722711,1.200378-1.042492
				c0.291374-0.319661,0.511429-0.609086,0.659798-0.868032c0.148247-0.258947,0.24115-0.488878,0.278214-0.689794
				c0.037056-0.200793,0.05571-0.372571,0.05571-0.515211c0-0.021091-0.0028-0.056812-0.008041-0.107041
				c-0.005249-0.050229-0.02256-0.099116-0.051575-0.146663c-0.029259-0.047547-0.071564-0.089851-0.127274-0.126913
				c-0.055595-0.036819-0.133865-0.055471-0.234444-0.055471c-0.196159,0-0.394882,0.083268-0.596283,0.249803
				c-0.201408,0.166414-0.393425,0.372571-0.576294,0.618351c-0.182869,0.245658-0.348557,0.510091-0.496803,0.792689
				c-0.148491,0.282843-0.270287,0.540448-0.365623,0.772939v4.090847c0,0.06876-0.011948,0.150442-0.035843,0.24578
				c-0.023773,0.095093-0.079483,0.184822-0.166901,0.269431c-0.08741,0.084609-0.214691,0.157269-0.381592,0.217983
				s-0.390854,0.091192-0.671745,0.091192s-0.500832-0.033161-0.659805-0.098995
				c-0.158974-0.066077-0.276993-0.144103-0.353676-0.234076c-0.076927-0.089729-0.124596-0.18214-0.143127-0.277478
				c-0.018654-0.095093-0.027794-0.171656-0.027794-0.229687V2.740688c0-0.153247-0.035843-0.286621-0.107285-0.400368
				c-0.071564-0.113624-0.192139-0.170437-0.361725-0.170437c-0.090218,0-0.168365,0.01463-0.234566,0.043645
				c-0.066315,0.029016-0.136421,0.072661-0.210663,0.130815l-0.158981-0.190309
				c0.121918-0.100336,0.256996-0.199452,0.405487-0.297228c0.148254-0.097776,0.311249-0.183604,0.488884-0.257728
				c0.177505-0.07388,0.366837-0.134716,0.568367-0.182262c0.201279-0.047669,0.413406-0.071442,0.635902-0.071442
				c0.344406,0,0.612137,0.046327,0.802933,0.138739c0.190796,0.092533,0.331116,0.206158,0.421333,0.340873
				c0.089973,0.134838,0.144348,0.277478,0.16288,0.428164c0.018532,0.150565,0.027916,0.284183,0.027916,0.400368V7.608252z"/>
			<path d="M103.225037,9.621917c0-0.692353,0.1007-1.298757,0.302101-1.819455
				c0.201401-0.520453,0.470222-0.955323,0.806831-1.304121c0.336487-0.348798,0.727463-0.610426,1.172577-0.784764
				c0.445107-0.17446,0.91143-0.261629,1.399094-0.261629c0.487534,0,0.953857,0.080585,1.399086,0.241757
				c0.445114,0.161293,0.835854,0.408292,1.172455,0.741241c0.336487,0.332949,0.605431,0.75453,0.806953,1.264499
				c0.201279,0.510091,0.301987,1.113812,0.301987,1.811409c0,0.692474-0.100708,1.305462-0.301987,1.839326
				c-0.201523,0.533743-0.470467,0.98312-0.806953,1.347645c-0.336601,0.364769-0.727341,0.641027-1.172455,0.828532
				c-0.445229,0.187505-0.911552,0.281379-1.399086,0.281379c-0.487663,0-0.953987-0.088511-1.399094-0.265531
				c-0.445114-0.17702-0.83609-0.440111-1.172577-0.788788c-0.336609-0.348919-0.605431-0.784886-0.806831-1.308144
				C103.325737,10.922014,103.225037,10.31427,103.225037,9.621917z M108.11393,9.54255
				c0-0.422678-0.014626-0.83097-0.043762-1.224754c-0.029137-0.393662-0.086197-0.743802-0.170929-1.050417
				c-0.084732-0.306493-0.206642-0.550932-0.365623-0.733316c-0.158974-0.182384-0.368423-0.273455-0.627975-0.273455
				c-0.259682,0-0.469009,0.096435-0.627983,0.289303c-0.158981,0.192991-0.281013,0.446695-0.365746,0.761113
				s-0.14045,0.672603-0.166901,1.074191c-0.026581,0.401709-0.039749,0.813902-0.039749,1.236702
				s0.013168,0.836334,0.039749,1.240603c0.026451,0.404512,0.082169,0.765137,0.166901,1.082114
				c0.084732,0.317223,0.206764,0.572268,0.365746,0.765137c0.158974,0.192869,0.368301,0.289425,0.627983,0.289425
				c0.259552,0,0.469002-0.100457,0.627975-0.301373c0.158981-0.200671,0.280891-0.464983,0.365623-0.792689
				s0.141792-0.697596,0.170929-1.110033C108.099304,10.382908,108.11393,9.965472,108.11393,9.54255z"/>
		</g>
	</g>
</g>
<g id="Layer_2">
</g>
</svg>
