<?xml version="1.0" encoding="utf-8"?>
<!-- Generator: Adobe Illustrator 23.0.0, SVG Export Plug-In . SVG Version: 6.00 Build 0)  -->
<svg version="1.1" id="Layer_1" xmlns="http://www.w3.org/2000/svg" xmlns:xlink="http://www.w3.org/1999/xlink" x="0px" y="0px"
	 width="65.760002px" height="16.32px" viewBox="0 0 65.760002 16.32" enable-background="new 0 0 65.760002 16.32"
	 xml:space="preserve">
<path fill-rule="evenodd" clip-rule="evenodd" d="M60.492737,13.570731c-1.319637,0-2.384937-0.475422-3.166546-1.413548
	c-0.817802-0.985082-1.232574-2.311567-1.232574-3.94473c0-0.696503,0.062607-1.316214,0.188801-1.871851h-0.953781v7.085351
	h-3.412079V6.340602h-0.971386c0.001953,0.06065,0.002934,0.122279,0.002934,0.184397
	c0,0.786989-0.160431,1.473221-0.476402,2.039129c-0.333576,0.597702-0.774761,1.032038-1.309853,1.291269
	c-0.48814,0.235755-1.175838,0.347274-2.163857,0.353143v3.217413h-6.406456v-1.792126
	c-0.223038,0.407924-0.490093,0.750306-0.800194,1.02519c-0.681831,0.604548-1.522133,0.911714-2.496456,0.911714
	c-1.207142,0-2.243092-0.49303-2.99633-1.425287c-0.796284-0.990952-1.199314-2.305698-1.199314-3.910003
	c0-1.679628,0.404499-3.038395,1.202248-4.039129c0.757153-0.946931,1.823429-1.447298,3.083397-1.447298
	c1.057468,0,1.9594,0.370262,2.681339,1.100024c0.196625,0.198582,0.371727,0.429934,0.525311,0.69259V2.894282h6.265591
	c1.255074,0,1.694302,0.085106,1.959404,0.168746c0.383469,0.12179,0.725849,0.320861,1.024212,0.595745v-0.76449h7.558815v1.184153
	c0.231842-0.26608,0.489117-0.49303,0.770847-0.679873c0.648571-0.430912,1.428223-0.649548,2.31646-0.649548
	c1.290291,0,2.403522,0.522377,3.218391,1.510394c0.779652,0.945463,1.174862,2.257765,1.174862,3.900709
	c-0.000977,1.661042-0.415749,3.001224-1.232578,3.984348C62.878651,13.076723,61.786942,13.570731,60.492737,13.570731z
	 M60.49567,6.224192c-0.259232,0-0.435314,0.092443-0.606506,0.318415c-0.12619,0.166789-0.33749,0.597701-0.33749,1.611641
	c0,0.938127,0.192715,1.389092,0.355099,1.602347c0.226952,0.298362,0.416729,0.339448,0.588898,0.339448
	s0.361946-0.040108,0.579117-0.329665c0.129128-0.17217,0.347271-0.616287,0.347271-1.641478
	c0-0.999266-0.208363-1.425776-0.3326-1.591098C60.92218,6.310766,60.755882,6.224192,60.49567,6.224192z M37.326191,6.224192
	c-0.179993,0-0.312057,0.043531-0.469551,0.260699c-0.089996,0.124236-0.299339,0.532159-0.299339,1.640009
	c0,1.168012,0.207386,1.59061,0.296406,1.71778c0.164341,0.233798,0.291512,0.253363,0.417706,0.253363
	c0.084126,0,0.161407-0.034239,0.21521-0.094889c0.083149-0.08902,0.240646-0.309122,0.354122-0.900954l0.225971-1.17975
	l2.524822,0.977256V7.169655l-2.579605,0.752262l-0.21032-1.077036c-0.03326-0.169234-0.099777-0.396674-0.230862-0.516997
	C37.496407,6.257452,37.414234,6.224192,37.326191,6.224192z M46.997993,6.759775
	c0.375645-0.009782,0.494987-0.043042,0.499878-0.044509c0.010761-0.074346,0.011738-0.212277-0.040108-0.340425
	c-0.073368-0.010272-0.213253-0.023967-0.45977-0.030325V6.759775z M26.66197,13.570731
	c-1.205183,0-2.198582-0.397162-2.957201-1.17975l0.552214,1.034972h-4.126194l-1.442894-2.99731v2.99731h-3.411103v-2.186354
	c-0.164833,0.328687-0.361458,0.630961-0.588898,0.904866c-0.769381,0.932258-1.861091,1.426266-3.155294,1.426266
	c-1.319638,0-2.384935-0.475422-3.166544-1.41257C7.547762,11.172101,7.13348,9.845615,7.13348,8.212453
	C7.132991,7.526222,7.197065,6.900152,7.324725,6.340602H6.368011v7.085351H2.956908V6.340602H0.880117v-3.44632h7.558816v1.184642
	c0.231842-0.265591,0.489118-0.49303,0.769871-0.679873c0.650037-0.431401,1.429689-0.650037,2.317925-0.650037
	c1.290292,0,2.403033,0.522377,3.218391,1.509905c0.203472,0.247004,0.380533,0.518953,0.531671,0.814869V2.894282h3.411103
	v1.803375l1.358278-1.803375h4.473953L23.67053,3.965449c0.204941-0.217657,0.428467-0.407435,0.669601-0.566887
	c0.649548-0.430912,1.428711-0.649548,2.315969-0.649548c1.290781,0,2.403522,0.522377,3.218391,1.510394
	c0.779163,0.943996,1.17437,2.256786,1.17437,3.900709c0.00049,1.660064-0.413794,3.001224-1.232086,3.985327
	C29.049353,13.076723,27.957642,13.570731,26.66197,13.570731z M26.664906,6.224192
	c-0.258743,0-0.434336,0.092443-0.605528,0.318415c-0.126192,0.166789-0.338469,0.59819-0.338469,1.611641
	c0,0.937148,0.193201,1.389092,0.355099,1.602347c0.226952,0.298362,0.417217,0.339448,0.588898,0.339448
	c0.172659,0,0.362436-0.040108,0.579603-0.329665c0.129128-0.17217,0.346785-0.616287,0.346785-1.641478
	c0-0.999755-0.207874-1.426265-0.332109-1.591098C27.091906,6.310766,26.925606,6.224192,26.664906,6.224192z M11.535534,6.224192
	c-0.258742,0-0.434336,0.092443-0.605527,0.318415c-0.127171,0.167767-0.339447,0.599168-0.339447,1.611641
	c0.000489,0.937148,0.19418,1.388114,0.356077,1.602347c0.226951,0.298362,0.417217,0.339448,0.588897,0.339448
	c0.17217,0,0.361458-0.040108,0.578136-0.328687c0.130105-0.174126,0.348251-0.617266,0.348251-1.642456
	c-0.000489-0.999755-0.208364-1.425776-0.3326-1.590609C11.961555,6.310766,11.795256,6.224192,11.535534,6.224192z
	 M22.478064,10.092131c-0.142822-0.572268-0.215212-1.199316-0.215212-1.879189
	c-0.00049-1.155784,0.181952-2.140377,0.541941-2.927366c0.124725-0.273906,0.265102-0.526779,0.420153-0.758132l-2.221081,2.800685
	L22.478064,10.092131z"/>
<path fill-rule="evenodd" clip-rule="evenodd" fill="#F1F2F2" d="M60.492737,13.069876
	c-1.164101,0-2.100269-0.414772-2.78112-1.232575c-0.741501-0.89215-1.117146-2.112008-1.117146-3.624847
	c0-1.085351,0.167278-2,0.496944-2.719002c0.33749-0.740035,0.794327-1.304965,1.355835-1.677183
	c0.565418-0.375642,1.25116-0.566398,2.039616-0.566398c1.152363,0,2.10516,0.447053,2.831989,1.328442
	c0.703354,0.85302,1.06041,2.058205,1.06041,3.581804c-0.000984,1.540719-0.376625,2.773294-1.117146,3.664466
	C62.580288,12.650213,61.64901,13.069876,60.492737,13.069876z M60.49567,5.723336c-0.418682,0-0.738567,0.164343-1.005623,0.516996
	c-0.291515,0.385425-0.439228,1.029103-0.439228,1.913916c0,0.864759,0.153584,1.505503,0.456837,1.904622
	c0.278793,0.366838,0.592808,0.538029,0.988014,0.538029c0.397163,0,0.708244-0.168256,0.98019-0.529224
	c0.296406-0.397163,0.447056-1.050624,0.447056-1.942774c0-0.873074-0.14576-1.509415-0.432381-1.891905
	C61.229347,5.885234,60.913376,5.723336,60.49567,5.723336z M37.294888,13.069876c-1.065296,0-1.942772-0.416728-2.606014-1.238445
	c-0.722916-0.899975-1.088776-2.109073-1.088776-3.595989c0-1.563218,0.367817-2.817314,1.093666-3.727072
	c0.667156-0.834923,1.573002-1.258498,2.691124-1.258498c0.91856,0,1.701149,0.319883,2.32526,0.951333
	c0.440208,0.445586,0.763023,1.095133,0.958672,1.931035l0.107605,0.462216l-2.378086,0.693079l-0.105652-0.538518
	c-0.068474-0.353143-0.196625-0.618733-0.381512-0.789435c-0.162384-0.154072-0.367813-0.236243-0.584984-0.236243
	c-0.37075,0-0.643677,0.148691-0.874542,0.467596c-0.180973,0.247983-0.395206,0.785033-0.395206,1.933969
	c0,1.200294,0.210323,1.752996,0.386406,2.004402c0.224014,0.318905,0.48716,0.467596,0.828564,0.467596
	c0.227928,0,0.442162-0.095867,0.589874-0.264123c0.212276-0.225972,0.371731-0.616288,0.471508-1.138665l0.112499-0.589875
	l2.330154,0.901933l-0.093914,0.42064c-0.236732,1.055515-0.648567,1.847885-1.221813,2.356566
	C38.871803,12.804774,38.143017,13.069876,37.294888,13.069876z M26.66197,13.069876
	c-1.163609,0-2.099291-0.414772-2.781609-1.232575c-0.740522-0.89215-1.116165-2.11103-1.116653-3.624847
	c-0.00049-1.082905,0.1663-1.997554,0.496452-2.718513c0.337492-0.740523,0.794327-1.305453,1.356323-1.678161
	c0.566397-0.375642,1.252628-0.565909,2.039618-0.565909c1.152361,0,2.10516,0.447053,2.831989,1.328442
	c0.70335,0.852042,1.059916,2.057227,1.059916,3.581804c0.00049,1.539742-0.375153,2.773294-1.116653,3.664466
	C28.75148,12.650213,27.819221,13.069876,26.66197,13.069876z M26.664906,5.723336c-0.418684,0-0.738077,0.164343-1.005136,0.516996
	c-0.291513,0.385914-0.439716,1.029592-0.439716,1.913916c0,0.864759,0.153584,1.505503,0.457325,1.904622
	c0.278797,0.366838,0.59281,0.538029,0.987528,0.538029c0.397652,0,0.709221-0.168256,0.98019-0.529224
	c0.296406-0.396185,0.447054-1.049645,0.447054-1.942774c0-0.873563-0.145267-1.509904-0.432381-1.891905
	C27.398581,5.885234,27.082611,5.723336,26.664906,5.723336z M11.532599,13.069876c-1.164099,0-2.100269-0.414772-2.782099-1.232575
	c-0.741012-0.893127-1.116165-2.112008-1.116165-3.624847C7.633847,7.12857,7.800636,6.213431,8.13079,5.493451
	c0.33798-0.739545,0.793838-1.303987,1.355344-1.677183c0.566398-0.375642,1.252628-0.566398,2.040596-0.566398
	c1.151872,0,2.104671,0.447053,2.831988,1.327953c0.703351,0.852531,1.059917,2.057716,1.059917,3.582294
	c-0.000489,1.539742-0.376131,2.773294-1.116165,3.664466C13.62113,12.650213,12.688872,13.069876,11.532599,13.069876z
	 M11.535534,5.723336c-0.418684,0-0.738077,0.164343-1.005136,0.516996c-0.292492,0.385914-0.440695,1.030081-0.440695,1.913916
	c0.000489,0.863781,0.154561,1.505503,0.458303,1.904622c0.278796,0.366838,0.59281,0.538029,0.987527,0.538029
	c0.397163,0,0.708241-0.168256,0.979213-0.529224c0.297383-0.397163,0.448031-1.050624,0.448031-1.942774
	c-0.000489-0.873563-0.146246-1.509904-0.432869-1.891905C12.268231,5.885234,11.952751,5.723336,11.535534,5.723336z
	 M52.417412,12.925097V5.839746h-2.01712c0.031307,0.21619,0.046959,0.445096,0.046959,0.685253
	c0,0.700416-0.138912,1.304475-0.412815,1.79457c-0.282711,0.506725-0.649548,0.871607-1.091713,1.08584
	c-0.422596,0.203473-1.083881,0.302275-2.02103,0.302275h-0.424553v3.217412h-2.408413V3.395139h2.768402
	c1.207142,0,1.610172,0.08315,1.808754,0.145268c0.530205,0.168256,0.967476,0.522866,1.301052,1.055026
	c0.169235,0.27146,0.294449,0.582539,0.374664,0.929812V3.395139h6.557106v2.444607h-2.070923v7.085351H52.417412z
	 M46.777893,7.263566c0.6427,0,0.841282-0.058205,0.88628-0.076303c0.088039-0.035216,0.165321-0.101736,0.214233-0.185864
	c0.15456-0.283199,0.15358-0.634874-0.010761-0.928344c-0.042065-0.071411-0.116409-0.134507-0.203472-0.168256
	c-0.021523-0.007337-0.219124-0.065053-0.979214-0.065053h-0.18782v1.42382H46.777893z M41.092396,12.925097V3.395139h2.409389
	v9.529958H41.092396z M20.445292,12.925097l-1.720224-3.574468l-0.538029,0.673025v2.901443h-2.409391V3.395139h2.409391v2.799706
	l2.108583-2.799706h3.188066l-3.076548,3.878699l3.014917,5.651259H20.445292z M3.457765,12.925097V5.839746H1.380973V3.395139
	h6.557104v2.444607H5.867156v7.085351H3.457765z"/>
<linearGradient id="SVGID_1_" gradientUnits="userSpaceOnUse" x1="15.812489" y1="24.27767" x2="49.074814" y2="-8.984655">
	<stop  offset="0" style="stop-color:#6D1012"/>
	<stop  offset="0.226257" style="stop-color:#F15A29"/>
	<stop  offset="0.49162" style="stop-color:#D12026"/>
	<stop  offset="0.706704" style="stop-color:#821E19"/>
	<stop  offset="0.851955" style="stop-color:#E24628"/>
	<stop  offset="1" style="stop-color:#630C0D"/>
</linearGradient>
<path fill-rule="evenodd" clip-rule="evenodd" fill="url(#SVGID_1_)" d="M5.366438,12.423861V5.338693h2.070874V3.896068H1.881977
	v1.442626H3.95868v7.085167H5.366438z M9.135509,11.516387c0.585236,0.701987,1.384229,1.052958,2.396981,1.052908
	c1.003778,0,1.798649-0.354851,2.384604-1.064554c0.666759-0.802731,1.000375-1.917655,1.000863-3.344777
	c0-1.411545-0.315178-2.49932-0.945542-3.263324s-1.44561-1.145982-2.445745-1.145934
	c-0.690777,0-1.278438,0.160915-1.762973,0.482744C9.279153,4.555279,8.886573,5.044888,8.58595,5.702281
	C8.285087,6.359575,8.134895,7.196248,8.135384,8.2123c0,1.400044,0.333375,2.501407,1.000134,3.304087l0,0H9.135509z
	 M10.131282,5.937902c0.361035-0.476968,0.82908-0.715477,1.404123-0.715527c0.574314,0,1.039195,0.236568,1.39466,0.709703
	c0.355455,0.473135,0.533308,1.204142,0.533548,2.19302c0,1.008385-0.182704,1.755865-0.548112,2.242443
	c-0.364678,0.486722-0.824708,0.73006-1.380096,0.730012c-0.551745,0-1.013969-0.245277-1.386655-0.735834
	C9.776066,9.871162,9.589479,9.135303,9.588999,8.154141C9.58899,7.153666,9.769757,6.41492,10.131272,5.937902H10.131282z
	 M17.686165,12.423861V9.847093l1.144987-1.430543l1.928938,4.007458h1.827028l-2.776215-5.204053l2.636454-3.32374h-1.902004
	l-2.859196,3.79622V3.896068h-1.407759v8.527793h1.407759H17.686165z M24.264933,11.516387
	c0.585955,0.701987,1.384949,1.052958,2.39698,1.052908c1.004498,0,1.79937-0.354851,2.384604-1.064554
	c0.667488-0.802731,1.001112-1.917655,1.000864-3.344777c0-1.411545-0.315178-2.49932-0.945543-3.263324
	c-0.630354-0.764005-1.445608-1.145982-2.445744-1.145934c-0.690048,0-1.2777,0.160915-1.762974,0.482744
	c-0.485264,0.321829-0.877851,0.811439-1.177748,1.468831c-0.300854,0.657294-0.451054,1.493967-0.450565,2.51002
	c0.00001,1.400044,0.333376,2.501407,1.000135,3.304087l0,0H24.264933z M25.260704,5.937902
	c0.361046-0.476968,0.829081-0.715477,1.404123-0.715527c0.575052-0.000049,1.040182,0.236519,1.39539,0.709703
	c0.355215,0.473135,0.53282,1.204142,0.53282,2.19302c0,1.008385-0.182465,1.755865-0.547382,2.242443
	c-0.36492,0.486578-0.825207,0.729915-1.380844,0.730012c-0.551754,0-1.013969-0.245277-1.386654-0.735834
	s-0.559032-1.226416-0.559032-2.207578c0.00001-1.000475,0.180527-1.739221,0.541563-2.216239H25.260704z M38.236992,10.664234
	c-0.244282,0.27675-0.596058,0.434681-0.965199,0.433319c-0.508072,0-0.921036-0.226862-1.238888-0.680588
	c-0.317852-0.453725-0.477016-1.217681-0.477505-2.291868c0-1.035415,0.163288-1.778068,0.489876-2.227959
	c0.326584-0.449891,0.748043-0.674812,1.264362-0.674764c0.349903-0.004357,0.687656,0.128209,0.941177,0.369409
	c0.266407,0.246322,0.44426,0.600178,0.53355,1.061571l1.396118-0.407187c-0.17469-0.748379-0.450329-1.312623-0.826897-1.692733
	c-0.528458-0.535153-1.184536-0.802729-1.968246-0.802729c-0.963009,0-1.729721,0.356671-2.300163,1.070014
	c-0.65583,0.82214-0.983883,1.960333-0.984123,3.414582c0,1.376751,0.325859,2.47035,0.977573,3.280794
	c0.566311,0.701987,1.305122,1.052956,2.216454,1.052908c0.724987,0.000001,1.335697-0.22007,1.83213-0.660206
	c0.496433-0.440139,0.851402-1.137224,1.064919-2.091259L38.82513,9.288209c-0.120842,0.628469-0.316891,1.087146-0.588158,1.376025
	H38.236992z M43.001099,12.423861V3.896068h-1.407757v8.527793H43.001099z M45.99641,12.423861V9.207049h0.925159
	c0.853096,0,1.454094-0.08434,1.803013-0.253017c0.348907-0.168679,0.639828-0.461489,0.872749-0.87843
	c0.232925-0.416797,0.3494-0.933606,0.3494-1.550429c0-0.678597-0.134903-1.23316-0.40472-1.66369
	c-0.269806-0.430529-0.611927-0.711668-1.026337-0.843418c-0.259865-0.081428-0.81258-0.122166-1.658161-0.122215h-2.268139
	v8.528011h1.407028H45.99641z M46.685001,5.338693c0.590336,0,0.977085,0.033071,1.160271,0.099214
	c0.193027,0.074546,0.355164,0.212206,0.46003,0.390591c0.247345,0.442531,0.249538,0.981205,0.005821,1.42574
	c-0.106121,0.18048-0.26886,0.320878-0.462944,0.399399c-0.188526,0.073906-0.545208,0.110835-1.070011,0.110787h-0.781765v-2.42573
	h0.688591H46.685001z M54.326504,12.423861V5.338693h2.070873V3.896068h-5.555336v1.442626h2.076706v7.085167H54.326504z
	 M58.095573,11.516387c0.585957,0.701987,1.384949,1.052958,2.39698,1.052908c1.003769,0,1.798649-0.354851,2.384605-1.064554
	c0.666759-0.802731,1.000374-1.917655,1.000862-3.344777c0-1.411545-0.315186-2.49932-0.945541-3.263324
	c-0.630363-0.764005-1.44561-1.145982-2.445744-1.145934c-0.690777,0-1.278439,0.160915-1.762974,0.482744
	c-0.484547,0.321829-0.877125,0.811439-1.17775,1.468831c-0.300869,0.657294-0.451046,1.493967-0.450565,2.51002
	c-0.000008,1.400044,0.333378,2.501407,1.000137,3.304087l0,0H58.095573z M59.091347,5.937902
	c0.361027-0.476968,0.829071-0.715477,1.404121-0.715527c0.575047-0.000049,1.040184,0.236519,1.39539,0.709703
	c0.355217,0.473135,0.532822,1.204142,0.532822,2.19302c0,1.008385-0.182465,1.755865-0.547382,2.242443
	c-0.364922,0.486578-0.825191,0.729915-1.380829,0.730012c-0.551743,0-1.013969-0.245277-1.386654-0.735834
	s-0.559029-1.226416-0.559029-2.207578c-0.000011-1.000475,0.180508-1.739221,0.541542-2.216239H59.091347z"/>
</svg>
