<?xml version="1.0" encoding="utf-8"?>
<!-- Generator: Adobe Illustrator 23.0.0, SVG Export Plug-In . SVG Version: 6.00 Build 0)  -->
<svg version="1.1" id="Layer_1" xmlns="http://www.w3.org/2000/svg" xmlns:xlink="http://www.w3.org/1999/xlink" x="0px" y="0px"
	 width="170.81395px" height="64px" viewBox="0 0 170.81395 64" enable-background="new 0 0 170.81395 64" xml:space="preserve">
<g>
	<g>
		
			<linearGradient id="SVGID_1_" gradientUnits="userSpaceOnUse" x1="280.219696" y1="-303.947113" x2="326.490906" y2="-257.675873" gradientTransform="matrix(1 0 0 -1 -274 -236)">
			<stop  offset="0" style="stop-color:#E93F3A"/>
			<stop  offset="0.140293" style="stop-color:#ED683C"/>
			<stop  offset="0.331461" style="stop-color:#F29140"/>
			<stop  offset="0.529157" style="stop-color:#FDC713"/>
			<stop  offset="0.565133" style="stop-color:#FFCA13"/>
			<stop  offset="0.598899" style="stop-color:#FFD219"/>
			<stop  offset="0.631674" style="stop-color:#FEE027"/>
			<stop  offset="0.659218" style="stop-color:#FCEF44"/>
			<stop  offset="0.840782" style="stop-color:#EF7E3E"/>
			<stop  offset="1" style="stop-color:#EB563C"/>
		</linearGradient>
		<path fill-rule="evenodd" clip-rule="evenodd" fill="url(#SVGID_1_)" d="M0,23.086315c0,0,11.803758-0.818893,19.9112,4.770187
			C34.790813,38.114494,40.656963,57.091648,64,61.247276c0,0-10.828854,2.65073-24.177868-7.632191
			c-0.772629-0.59528-21.414812-20.287228-24.177608-22.419533S4.85783,23.548712,0,23.086315z M30.814846,17.362299
			l10.903645,30.051725c0,0,6.068691,7.438133,15.170315,10.494202c0,0-19.796822-46.008034-22.281509-52.947792
			c-0.59116-1.650634-2.701109-5.935551-4.266668-0.477045c-0.282219,0.984161-9.007294,22.419022-9.007294,22.419022
			l3.79245,3.33905c0,0,5.113058-14.540592,5.689062-12.87916V17.362299z M20.385159,43.120884l-5.214846,13.356213
			c0,0-0.899598,3.752609,2.370314,4.29237h2.844532v1.4319h-19.9112v-1.431129h4.740885c0,0,4.200867-2.287548,6.636982-10.017155
			c0.330281-1.047901,4.740881-11.926102,4.740881-11.926102s-3.238556-3.855423-9.481512-9.540113
			c0,0,10.328674,6.860594,16.592447,14.310293c0.434633,0.516884,8.734072,11.01263,21.333334,17.649349
			C45.036976,61.247276,31.277237,56.844902,20.385159,43.120884z"/>
	</g>
</g>
<g>
	<path fill="#FFFFFF" d="M68.208008,30.055664v-2.535156l0.96875-0.030762c0.472656-0.015137,0.728516-0.117676,0.810547-0.208984
		c0.020508-0.022949,0.199219-0.243164,0.199219-1.025879V15.607422c-0.755859,0-1.307617,0.144531-1.59375,0.417969
		c-0.300781,0.286133-0.500977,0.866699-0.579102,1.678711l-0.086914,0.904297h-2.474609v-5.990234h16.270508v5.990234h-2.453125
		l-0.086914-0.904297c-0.078125-0.80957-0.280273-1.388184-0.583984-1.67334c-0.294922-0.276855-0.851563-0.42334-1.610352-0.42334
		v10.647461c0,0.787598,0.166016,0.997559,0.185547,1.018555c0.017578,0.02002,0.180664,0.183594,0.842773,0.217285
		l0.949219,0.047852v2.51709H68.208008z"/>
	<path fill="#FFFFFF" d="M90.347656,30.422852c-2.841797,0-5.146484-0.830566-6.850586-2.46875
		c-1.71582-1.648438-2.585938-3.873047-2.585938-6.611328c0-2.754395,0.868164-4.98291,2.582031-6.624512
		c1.699219-1.629395,4.005859-2.455566,6.854492-2.455566c2.854492,0,5.167969,0.825684,6.875,2.454102
		c1.720703,1.640625,2.59375,3.870117,2.59375,6.625977c0,2.739258-0.874023,4.964355-2.597656,6.613281
		C95.506836,29.592773,93.195313,30.422852,90.347656,30.422852z M90.347656,15.306641
		c-0.511719,0-1.163086,0.133301-1.667969,1.171875c-0.494141,1.013184-0.744141,2.649414-0.744141,4.864258
		c0,2.201172,0.250977,3.833984,0.745117,4.854004c0.505859,1.046875,1.15625,1.181152,1.666992,1.181152
		c0.505859,0,1.15332-0.130371,1.669922-1.147949c0.5-0.983398,0.75293-2.522949,0.75293-4.57666
		c0-2.382324-0.245117-4.117676-0.728516-5.157227C91.658203,15.673828,91.135742,15.306641,90.347656,15.306641z"/>
	<path fill="#FFFFFF" d="M99.005859,30.055664V27.52002l0.96875-0.030273c0.478516-0.015137,0.733398-0.115234,0.8125-0.204102
		c0.021484-0.023926,0.197266-0.243652,0.197266-1.030762v-9.835938c0-0.783691-0.172852-0.997559-0.192383-1.019043
		c-0.030273-0.033691-0.201172-0.189941-0.828125-0.216309l-0.958008-0.040039v-2.525391h17.337891v2.578125h-1.177734
		c-0.349609,0-0.649414,0.0625-0.891602,0.185059c-0.25293,0.129395-0.514648,0.364746-0.77832,0.699707l-1.938477,2.411621
		l4.77832,8.005371c0.279297,0.442871,0.507813,0.683594,0.648438,0.804199c0.132813,0.11377,0.259766,0.181152,0.373047,0.197754
		l0.853516,0.126465v2.429199H99.005859z M107.786133,26.254883c0,0.849609,0.162109,1.078613,0.168945,1.087891
		c0.041992,0.056152,0.200195,0.128906,0.505859,0.148438l0.384766,0.024414c0,0,0.678711-0.036133,0.757813-0.041992
		l-1.817383-3.114258V26.254883z M108.500977,15.195313c-0.37793,0.018066-0.525391,0.105957-0.550781,0.138184
		c-0.000977,0.002441-0.164063,0.223633-0.164063,1.085449v1.989746l2.575195-3.210938
		c-0.043945-0.000977-1.140625-0.001465-1.140625-0.001465v-0.035645L108.500977,15.195313z"/>
	<path fill="#FFFFFF" d="M124.992188,30.422852c-2.841797,0-5.146484-0.830566-6.850586-2.46875
		c-1.71582-1.648438-2.585938-3.873047-2.585938-6.611328c0-2.754395,0.868164-4.98291,2.582031-6.624512
		c1.699219-1.629395,4.005859-2.455566,6.854492-2.455566c2.854492,0,5.167969,0.825684,6.875,2.454102
		c1.720703,1.640625,2.59375,3.870117,2.59375,6.625977c0,2.739258-0.874023,4.964355-2.597656,6.613281
		C130.151367,29.592773,127.839844,30.422852,124.992188,30.422852z M124.992188,15.306641
		c-0.511719,0-1.163086,0.133301-1.667969,1.171875c-0.494141,1.013184-0.744141,2.649414-0.744141,4.864258
		c0,2.201172,0.250977,3.833984,0.745117,4.854004c0.505859,1.046875,1.15625,1.181152,1.666992,1.181152
		c0.505859,0,1.15332-0.130371,1.669922-1.147949c0.5-0.983398,0.75293-2.522949,0.75293-4.57666
		c0-2.382324-0.245117-4.117676-0.728516-5.157227C126.302734,15.673828,125.780273,15.306641,124.992188,15.306641z"/>
	<path fill="#FFFFFF" d="M71.842773,51.370117v-2.566406h1c0.40625,0,0.672852-0.015625,0.84375-0.033203
		c-0.012695-0.054688-0.033203-0.116211-0.057617-0.176758l-0.776367-2.135742h-2.646484l-0.664063,1.726563
		c-0.033203,0.095703-0.067383,0.208984-0.088867,0.311523c-0.020508,0.099609-0.023438,0.158203-0.023438,0.18457
		c0,0.041016,0.00293,0.070313,0.005859,0.089844c0.00293-0.000977,0.006836-0.000977,0.012695-0.000977
		c0.051758,0,0.209961,0.03418,0.504883,0.03418h1.210938v2.566406h-6.667969v-2.566406h1
		c0.134766,0,0.226563-0.032227,0.317383-0.112305c0.086914-0.076172,0.261719-0.276367,0.454102-0.759766l5.5625-13.999023
		h3.061523l5.594727,14.226563c0.195313,0.491211,0.320313,0.614258,0.326172,0.619141
		c0.003906,0.00293,0.056641,0.025391,0.176758,0.025391h1v2.566406H71.842773z M71.750977,43.501953l-0.197266-0.535156
		l-0.208008,0.535156H71.750977z"/>
	<path fill="#FFFFFF" d="M93.546875,51.737305l-2.791992-8.510742l-3.168945,8.510742h-2.636719l-4.830078-14.431641
		c-0.178711-0.558594-0.328125-0.697266-0.344727-0.711914c-0.0625-0.052734-0.203125-0.083008-0.385742-0.083008h-1.210938
		v-2.578125H96.47168v2.560547l-0.982422,0.017578c-0.073242,0.000977-0.132813,0.005859-0.180664,0.011719
		c0.007813,0.025391,1.633789,4.870117,1.633789,4.870117l1.762695-4.626953c0.041992-0.101563,0.073242-0.183594,0.09668-0.254883
		C98.762695,36.504883,98.71582,36.5,98.661133,36.498047l-0.955078-0.042969v-2.522461h5.645508v2.524414l-0.957031,0.041016
		c-0.172852,0.007813-0.246094,0.053711-0.291016,0.092773c-0.038086,0.03418-0.1875,0.188477-0.364258,0.645508
		l-5.581055,14.500977H93.546875z M88.251953,41.299805l1-2.668945l-0.527344-1.527344
		c-0.054688-0.161133-0.147461-0.371094-0.288086-0.482422c-0.03418-0.027344-0.141602-0.112305-0.416992-0.123047
		l-0.261719-0.009766v0.022461c0,0-1.056641,0-1.082031,0.000977C86.694336,36.575195,88.251953,41.299805,88.251953,41.299805z"/>
	<path fill="#FFFFFF" d="M106.275391,51.370117v-2.566406h1c0.40625,0,0.672852-0.015625,0.84375-0.033203
		c-0.012695-0.055664-0.033203-0.116211-0.057617-0.176758l-0.776367-2.135742h-2.646484l-0.664063,1.726563
		c-0.033203,0.095703-0.067383,0.208984-0.088867,0.311523c-0.020508,0.099609-0.023438,0.158203-0.023438,0.18457
		c0,0.041016,0.00293,0.070313,0.005859,0.089844c0.00293-0.000977,0.006836-0.000977,0.012695-0.000977
		c0.051758,0,0.209961,0.03418,0.504883,0.03418h1.210938v2.566406h-6.667969v-2.566406h1
		c0.134766,0,0.226563-0.032227,0.317383-0.112305c0.086914-0.076172,0.261719-0.276367,0.454102-0.759766l5.5625-13.999023
		h3.061523l5.594727,14.226563c0.195313,0.491211,0.320313,0.614258,0.326172,0.619141
		c0.003906,0.00293,0.056641,0.025391,0.176758,0.025391h1v2.566406H106.275391z M106.183594,43.501953l-0.197266-0.535156
		l-0.208008,0.535156H106.183594z"/>
	<path fill="#FFFFFF" d="M114.355469,51.370117v-2.536133l0.96875-0.030273c0.478516-0.014648,0.733398-0.115234,0.8125-0.204102
		c0.033203-0.037109,0.197266-0.260742,0.197266-1.030273v-9.835938c0-0.783203-0.172852-0.99707-0.192383-1.019531
		c-0.030273-0.033203-0.201172-0.189453-0.828125-0.21582l-0.958008-0.040039v-2.525391h10.758789v2.516602l-0.949219,0.048828
		c-0.498047,0.025391-0.763672,0.133789-0.84082,0.219727c-0.019531,0.022461-0.188477,0.232422-0.188477,1.015625v9.835938
		c0,0.545898,0.086914,0.743164,0.105469,0.779297c0-0.000977,0.000977-0.000977,0.001953-0.000977
		c0.018555,0,0.137695,0.043945,0.415039,0.043945c0.904297,0,1.628906-0.319336,2.21582-0.977539
		c0.646484-0.72168,1.078125-1.791992,1.285156-3.181641l0.143555-0.962891l2.571289,0.313477l-0.775391,7.787109H114.355469z"/>
	<path fill="#FFFFFF" d="M128.515625,51.370117v-2.525391l0.958008-0.040039c0.491211-0.020508,0.75293-0.125977,0.828125-0.209961
		c0.019531-0.022461,0.192383-0.240234,0.192383-1.025391v-9.835938c0-0.783203-0.173828-0.998047-0.193359-1.020508
		c-0.081055-0.089844-0.341797-0.194336-0.827148-0.214844l-0.958008-0.040039v-2.525391h10.757813v2.529297l-0.949219,0.047852
		c-0.541016,0.027344-0.786133,0.146484-0.845703,0.212891c-0.007813,0.008789-0.183594,0.213867-0.183594,1.010742v9.835938
		c0,0.783203,0.168945,0.992188,0.1875,1.013672c0.079102,0.087891,0.344727,0.196289,0.841797,0.22168l0.949219,0.048828v2.516602
		H128.515625z"/>
	<path fill="#FFFFFF" d="M140.962891,51.370117v-2.536133l0.96875-0.030273c0.478516-0.014648,0.733398-0.115234,0.8125-0.204102
		c0.032227-0.036133,0.197266-0.260742,0.197266-1.030273v-3.303711l-3.804688-6.716797
		c-0.356445-0.632813-0.587891-0.839844-0.669922-0.899414c-0.082031-0.058594-0.224609-0.138672-0.494141-0.138672h-1v-2.578125
		h10.113281v2.578125h-0.991211l1.923828,3.576172l1.865234-3.482422c0.016602-0.026367,0.030273-0.048828,0.041016-0.067383
		c-0.101563-0.014648-0.241211-0.026367-0.426758-0.026367h-1.12207v-2.578125h6.378906v2.578125h-1.12207
		c-0.044922,0-0.099609,0.005859-0.186523,0.073242c-0.076172,0.058594-0.224609,0.203125-0.408203,0.549805l-3.295898,6.205078
		v4.230469c0,0.786133,0.166992,0.99707,0.186523,1.018555c0.017578,0.019531,0.180664,0.183594,0.842773,0.216797
		l0.949219,0.047852v2.517578H140.962891z"/>
	<path fill="#FFFFFF" d="M158.313477,51.370117v-2.566406h1c0.40625,0,0.672852-0.015625,0.84375-0.033203
		c-0.012695-0.054688-0.033203-0.116211-0.057617-0.176758l-0.776367-2.135742h-2.646484l-0.664063,1.726563
		c-0.033203,0.095703-0.067383,0.208984-0.088867,0.311523c-0.020508,0.099609-0.023438,0.158203-0.023438,0.18457
		c0,0.041016,0.00293,0.070313,0.005859,0.089844c0.00293-0.000977,0.006836-0.000977,0.012695-0.000977
		c0.051758,0,0.209961,0.03418,0.504883,0.03418h1.210938v2.566406h-6.667969v-2.566406h1
		c0.134766,0,0.226563-0.032227,0.317383-0.112305c0.086914-0.076172,0.261719-0.276367,0.454102-0.759766l5.5625-13.999023
		h3.061523l5.594727,14.226563c0.195313,0.491211,0.320313,0.614258,0.326172,0.619141
		c0.003906,0.00293,0.056641,0.025391,0.176758,0.025391h1v2.566406H158.313477z M158.22168,43.501953l-0.197266-0.535156
		l-0.208008,0.535156H158.22168z"/>
</g>
<g>
	<path fill="#971B1E" d="M80.722656,13.61792v3.990234h-0.544922c-0.103516-1.074219-0.401367-1.843262-0.894531-2.306152
		c-0.493164-0.463379-1.257813-0.694824-2.294922-0.694824h-1v11.647949c0,0.792969,0.145508,1.354004,0.438477,1.683594
		c0.292969,0.330078,0.805664,0.513184,1.539063,0.550293v0.566895h-8.757813v-0.566895
		c0.711914-0.021973,1.21875-0.20166,1.522461-0.539063c0.303711-0.336914,0.456055-0.901855,0.456055-1.694824V14.607178h-1
		c-1.038086,0-1.798828,0.231445-2.28418,0.694824c-0.485352,0.462891-0.780273,1.231934-0.883789,2.306152h-0.566406V13.61792
		H80.722656z"/>
	<path fill="#971B1E" d="M98.816406,21.342529c0,2.467285-0.762695,4.431152-2.289063,5.890625
		c-1.526367,1.459961-3.586914,2.189453-6.179688,2.189453c-2.585938,0-4.638672-0.729492-6.157227-2.189453
		c-1.519531-1.459473-2.279297-3.42334-2.279297-5.890625c0-2.482422,0.757813-4.449707,2.273438-5.901855
		c1.514648-1.452148,3.569336-2.178223,6.163086-2.178223c2.600586,0,4.662109,0.726074,6.18457,2.178223
		C98.055664,16.892822,98.816406,18.860107,98.816406,21.342529z M90.347656,28.377686
		c1.133789,0,1.987305-0.564453,2.561523-1.694824c0.574219-1.129883,0.861328-2.806152,0.861328-5.029297
		c0-2.541504-0.274414-4.401367-0.822266-5.579102c-0.548828-1.178223-1.415039-1.767578-2.600586-1.767578
		c-1.148438,0-2.004883,0.578125-2.567383,1.733887c-0.563477,1.15625-0.844727,2.92334-0.844727,5.301758
		c0,2.36377,0.28125,4.127441,0.844727,5.290527C88.342773,27.796143,89.199219,28.377686,90.347656,28.377686z"/>
	<path fill="#971B1E" d="M106.786133,26.255127c0,0.792969,0.12207,1.354004,0.366211,1.683594
		c0.245117,0.330078,0.660156,0.513184,1.245117,0.550293l0.011719,0.566895h-8.40332v-0.566895
		c0.71875-0.021973,1.228516-0.20166,1.52832-0.539063c0.300781-0.336914,0.450195-0.901855,0.450195-1.694824v-9.836426
		c0-0.79248-0.149414-1.355957-0.450195-1.689453c-0.299805-0.333496-0.80957-0.514648-1.52832-0.544434V13.61792h8.447266v0.578125
		c-0.615234,0.029785-1.046875,0.205566-1.294922,0.527832s-0.37207,0.887207-0.37207,1.694824v4.834961l4.368164-5.446289
		c0.177734-0.214844,0.308594-0.407227,0.394531-0.577637c0.084961-0.17041,0.12793-0.326172,0.12793-0.466797
		c0-0.185547-0.123047-0.326172-0.367188-0.422363s-0.607422-0.144531-1.088867-0.144531V13.61792h5.123047v0.578125h-0.177734
		c-0.510742,0-0.958984,0.098145-1.344727,0.294434c-0.384766,0.196289-0.755859,0.520508-1.111328,0.972656l-2.367188,2.945313
		l5.134766,8.602539c0.289063,0.459473,0.574219,0.80957,0.855469,1.050293c0.282227,0.240723,0.574219,0.383301,0.87793,0.427734
		v0.566895h-7.824219v-0.566895c0.570313-0.029297,0.959961-0.084961,1.166992-0.166504s0.311523-0.214844,0.311523-0.400391
		c0-0.096191-0.020508-0.199707-0.061523-0.311035s-0.12793-0.281738-0.260742-0.51123l-3.067383-5.257324l-0.689453,0.844727
		V26.255127z"/>
	<path fill="#971B1E" d="M133.460938,21.342529c0,2.467285-0.762695,4.431152-2.289063,5.890625
		c-1.526367,1.459961-3.586914,2.189453-6.179688,2.189453c-2.585938,0-4.638672-0.729492-6.157227-2.189453
		c-1.519531-1.459473-2.279297-3.42334-2.279297-5.890625c0-2.482422,0.757813-4.449707,2.273438-5.901855
		c1.514648-1.452148,3.569336-2.178223,6.163086-2.178223c2.600586,0,4.662109,0.726074,6.18457,2.178223
		C132.700195,16.892822,133.460938,18.860107,133.460938,21.342529z M124.992188,28.377686
		c1.133789,0,1.987305-0.564453,2.561523-1.694824c0.574219-1.129883,0.861328-2.806152,0.861328-5.029297
		c0-2.541504-0.274414-4.401367-0.822266-5.579102c-0.548828-1.178223-1.415039-1.767578-2.600586-1.767578
		c-1.148438,0-2.004883,0.578125-2.567383,1.733887c-0.563477,1.15625-0.844727,2.92334-0.844727,5.301758
		c0,2.36377,0.28125,4.127441,0.844727,5.290527C122.987305,27.796143,123.84375,28.377686,124.992188,28.377686z"/>
	<path fill="#971B1E" d="M68.608398,47.825439c-0.05957,0.169922-0.104492,0.326172-0.133789,0.466797
		s-0.044922,0.270508-0.044922,0.388672c0,0.392578,0.121094,0.677734,0.361328,0.855469
		c0.241211,0.178711,0.62793,0.267578,1.162109,0.267578h0.210938v0.566406h-4.667969v-0.566406
		c0.37793,0,0.704102-0.121094,0.977539-0.361328c0.274414-0.241211,0.515625-0.621094,0.722656-1.139648l5.3125-13.370117h1.701172
		l5.345703,13.592773c0.200195,0.503906,0.40332,0.842773,0.611328,1.016602c0.207031,0.173828,0.481445,0.261719,0.822266,0.261719
		v0.566406h-8.146484v-0.566406c0.807617,0,1.320313-0.057617,1.539063-0.172852
		c0.21875-0.114258,0.328125-0.338867,0.328125-0.671875c0-0.119141-0.013672-0.241211-0.039063-0.367188
		c-0.026367-0.125977-0.06543-0.251953-0.117188-0.37793l-1-2.755859h-4.03418L68.608398,47.825439z M69.885742,44.502197H73.1875
		l-1.612305-4.357422L69.885742,44.502197z"/>
	<path fill="#971B1E" d="M85.668945,50.737549l-4.601563-13.749023c-0.177734-0.555664-0.392578-0.94043-0.644531-1.155273
		s-0.59668-0.322266-1.03418-0.322266h-0.210938v-0.578125h7.580078v0.578125h-0.066406
		c-0.318359,0-0.576172,0.058594-0.772461,0.177734c-0.196289,0.118164-0.294922,0.270508-0.294922,0.455078
		c0,0.148438,0.012695,0.291016,0.039063,0.427734c0.026367,0.137695,0.072266,0.298828,0.138672,0.484375l2.389648,7.256836
		l2.123047-5.667969l-0.644531-1.867188c-0.140625-0.415039-0.344727-0.727539-0.611328-0.939453
		c-0.266602-0.210938-0.600586-0.323242-1-0.338867v-0.566406h7.413086v0.578125
		c-0.392578,0.006836-0.691406,0.081055-0.894531,0.22168c-0.204102,0.140625-0.305664,0.344727-0.305664,0.611328
		c0,0.082031,0.008789,0.168945,0.027344,0.261719s0.046875,0.194336,0.083984,0.305664l2.5,7.446289l2.756836-7.235352
		c0.074219-0.177734,0.12793-0.334961,0.161133-0.472656c0.033203-0.136719,0.049805-0.260742,0.049805-0.37207
		c0-0.222656-0.103516-0.404297-0.311523-0.544922c-0.207031-0.140625-0.485352-0.217773-0.833008-0.233398v-0.566406h3.645508
		v0.566406c-0.363281,0.015625-0.665039,0.12793-0.90625,0.338867c-0.240234,0.211914-0.453125,0.557617-0.638672,1.039063
		L95.47168,50.737549h-1.200195l-3.457031-10.537109l-3.922852,10.537109H85.668945z"/>
	<path fill="#971B1E" d="M103.041016,47.825439c-0.05957,0.169922-0.104492,0.326172-0.133789,0.466797
		s-0.044922,0.270508-0.044922,0.388672c0,0.392578,0.121094,0.677734,0.361328,0.855469
		c0.241211,0.178711,0.62793,0.267578,1.162109,0.267578h0.210938v0.566406h-4.667969v-0.566406
		c0.37793,0,0.704102-0.121094,0.977539-0.361328c0.274414-0.241211,0.515625-0.621094,0.722656-1.139648l5.3125-13.370117h1.701172
		l5.345703,13.592773c0.200195,0.503906,0.40332,0.842773,0.611328,1.016602c0.207031,0.173828,0.481445,0.261719,0.822266,0.261719
		v0.566406h-8.146484v-0.566406c0.807617,0,1.320313-0.057617,1.539063-0.172852
		c0.21875-0.114258,0.328125-0.338867,0.328125-0.671875c0-0.119141-0.013672-0.241211-0.039063-0.367188
		c-0.026367-0.125977-0.06543-0.251953-0.117188-0.37793l-1-2.755859h-4.03418L103.041016,47.825439z M104.318359,44.502197
		h3.301758l-1.612305-4.357422L104.318359,44.502197z"/>
	<path fill="#971B1E" d="M122.135742,47.56958c0,0.681641,0.112305,1.15625,0.338867,1.422852
		c0.225586,0.266602,0.620117,0.399414,1.183594,0.399414c1.193359,0,2.180664-0.436523,2.961914-1.311523
		c0.782227-0.874023,1.291016-2.107422,1.52832-3.700195l0.633789,0.077148l-0.588867,5.913086h-12.837891v-0.566406
		c0.71875-0.022461,1.228516-0.202148,1.52832-0.539063c0.300781-0.337891,0.450195-0.902344,0.450195-1.695313v-9.835938
		c0-0.792969-0.149414-1.356445-0.450195-1.689453c-0.299805-0.333984-0.80957-0.514648-1.52832-0.544922v-0.566406h8.758789
		v0.566406c-0.726563,0.037109-1.238281,0.220703-1.53418,0.550781c-0.295898,0.329102-0.444336,0.890625-0.444336,1.683594
		V47.56958z"/>
	<path fill="#971B1E" d="M136.294922,47.56958c0,0.792969,0.148438,1.354492,0.445313,1.683594
		c0.295898,0.330078,0.807617,0.513672,1.533203,0.550781v0.566406h-8.757813v-0.566406
		c0.725586-0.030273,1.237305-0.211914,1.533203-0.544922c0.296875-0.333984,0.445313-0.896484,0.445313-1.689453v-9.835938
		c0-0.792969-0.150391-1.356445-0.450195-1.689453c-0.300781-0.333984-0.80957-0.514648-1.52832-0.544922v-0.566406h8.757813
		v0.578125c-0.733398,0.037109-1.246094,0.217773-1.539063,0.543945s-0.439453,0.885742-0.439453,1.678711V47.56958z"/>
	<path fill="#971B1E" d="M148.742188,43.090088v4.479492c0,0.792969,0.146484,1.354492,0.439453,1.683594
		c0.292969,0.330078,0.805664,0.513672,1.539063,0.550781v0.566406h-8.757813v-0.566406
		c0.71875-0.022461,1.228516-0.202148,1.52832-0.539063c0.299805-0.337891,0.450195-0.902344,0.450195-1.695313v-3.567383
		l-3.93457-6.946289c-0.333984-0.592773-0.652344-0.999023-0.956055-1.217773
		c-0.303711-0.217773-0.663086-0.327148-1.078125-0.327148v-0.578125h8.113281v0.578125
		c-0.415039,0-0.716797,0.049805-0.905273,0.149414c-0.189453,0.100586-0.283203,0.261719-0.283203,0.483398
		c0,0.082031,0.012695,0.168945,0.038086,0.261719c0.026367,0.092773,0.068359,0.19043,0.12793,0.293945l2.957031,5.501953
		l2.745117-5.124023c0.081055-0.125977,0.140625-0.256836,0.177734-0.394531c0.037109-0.136719,0.055664-0.272461,0.055664-0.405273
		c0-0.251953-0.12793-0.442383-0.383789-0.572266s-0.62793-0.194336-1.117188-0.194336h-0.12207v-0.578125h4.378906v0.578125
		h-0.12207c-0.289063,0-0.555664,0.09375-0.799805,0.283203c-0.245117,0.188477-0.470703,0.479492-0.678711,0.87207
		L148.742188,43.090088z"/>
	<path fill="#971B1E" d="M155.079102,47.825439c-0.05957,0.169922-0.104492,0.326172-0.133789,0.466797
		s-0.044922,0.270508-0.044922,0.388672c0,0.392578,0.121094,0.677734,0.361328,0.855469
		c0.241211,0.178711,0.62793,0.267578,1.162109,0.267578h0.210938v0.566406h-4.667969v-0.566406
		c0.37793,0,0.704102-0.121094,0.977539-0.361328c0.274414-0.241211,0.515625-0.621094,0.722656-1.139648l5.3125-13.370117h1.701172
		l5.345703,13.592773c0.200195,0.503906,0.40332,0.842773,0.611328,1.016602c0.207031,0.173828,0.481445,0.261719,0.822266,0.261719
		v0.566406h-8.146484v-0.566406c0.807617,0,1.320313-0.057617,1.539063-0.172852
		c0.21875-0.114258,0.328125-0.338867,0.328125-0.671875c0-0.119141-0.013672-0.241211-0.039063-0.367188
		c-0.026367-0.125977-0.06543-0.251953-0.117188-0.37793l-1-2.755859h-4.03418L155.079102,47.825439z M156.356445,44.502197
		h3.301758l-1.612305-4.357422L156.356445,44.502197z"/>
</g>
</svg>
